#N canvas 213 30 982 633 12;
#X obj 15 46 tgl 20 0 \$0-on-snd \$0-on-rcv micros_actif 0 -10 0 12 #fcfcfc #000000 #000000 0 1;
#X obj 133 39 sel 0 1, f 44;
#X msg 133 64 label micros_inactif;
#X msg 285 64 label micros_actif;
#X obj 133 14 r \$0-on-snd;
#X obj 133 89 s \$0-on-rcv;
#X msg 579 62 clear;
#X obj 778 79 s \$0-on-rcv;
#X obj 778 27 r MODE;
#X obj 778 52 == \$1;
#X obj 570 40 bng 20 250 50 0 empty empty clear 22 10 0 12 #ff0400 #000000 #ff0400;
#X obj 17 131 mode-inputs \$0, f 116;
#X floatatom 112 165 5 0 0 0 - - - 0;
#X obj 780 470 hsl 170 20 0 2 0 1 \$0-master \$0-master empty -2 -10 0 12 #ff0400 #000000 #000000 9000 1;
#X obj 190 557 mode-outputs \$0, f 84;
#X obj 533 281 hip~ 300;
#X obj 602 280 hip~ 300;
#X obj 556 360 rev3~ 90 99 3000 30;
#X msg 687 317 90;
#X msg 723 317 10;
#X obj 219 374 volume4, f 25;
#X obj 555 388 volume4, f 25;
#X obj 228 280 lop~ 2000;
#X obj 337 280 lop~ 2000;
#X obj 14 478 max;
#X obj 14 504 f;
#X obj 33 166 hip~ 100;
#X obj 49 200 noisegate 70 1 1000;
#X obj 14 450 env~;
#X obj 69 418 del 50;
#X obj 69 443 t b b;
#X obj 101 471 f;
#X msg 69 475 0;
#X floatatom 82 583 5 0 0 0 - - - 24;
#X obj 69 277 sel 1 0;
#X obj 69 368 spigot 1;
#X msg 85 393 0;
#X msg 122 344 1;
#X obj 122 317 del 100;
#X msg 80 318 stop;
#X obj 101 496 - 80;
#X obj 101 521 / 15;
#X obj 101 546 clip 0 1;
#X obj 333 397 *~ 0.5;
#X obj 276 397 *~ 0.25;
#X obj 391 398 *~ 0.125;
#X obj 220 348 rev3~ 102 99 4000 20;
#X obj 555 439 rot4x4, f 33;
#N canvas 880 108 450 300 random 1;
#X obj 102 29 loadbang;
#X obj 102 54 tgl 20 0 empty empty empty 0 -10 0 12 #fcfcfc #000000 #000000 0 1;
#X obj 102 129 sel 0;
#X obj 102 154 random 10000;
#X obj 102 179 / 1000;
#X obj 102 257 outlet;
#X obj 102 231 line;
#X obj 194 208 hsl 170 20 0 4 0 0 empty empty empty -2 -10 0 12 #fcfcfc #000000 #000000 0 1;
#X obj 102 104 random 8;
#X obj 196 26 inlet;
#X obj 102 79 metro 350;
#X msg 102 204 \$1 600;
#X connect 0 0 1 0;
#X connect 1 0 10 0;
#X connect 2 0 3 0;
#X connect 3 0 4 0;
#X connect 4 0 11 0;
#X connect 6 0 5 0;
#X connect 7 0 11 0;
#X connect 8 0 2 0;
#X connect 9 0 1 0;
#X connect 10 0 8 0;
#X connect 11 0 6 0;
#X restore 467 360 pd random;
#N canvas 880 108 450 377 tourne 0;
#X obj 102 29 loadbang;
#X obj 102 54 tgl 20 0 empty empty empty 0 -10 0 12 #fcfcfc #000000 #000000 0 1;
#X obj 102 79 metro 100;
#X msg 102 221 \$1 100;
#X obj 102 274 outlet;
#X obj 102 248 line;
#X obj 102 104 f;
#X obj 102 163 fmod 1;
#X obj 102 192 * 4;
#X floatatom 176 229 5 0 0 0 - - - 0;
#X obj 102 138 + 0.01;
#X obj 196 26 inlet;
#X connect 0 0 1 0;
#X connect 1 0 2 0;
#X connect 2 0 6 0;
#X connect 3 0 5 0;
#X connect 5 0 4 0;
#X connect 6 0 10 0;
#X connect 7 0 6 1;
#X connect 7 0 8 0;
#X connect 8 0 3 0;
#X connect 8 0 9 0;
#X connect 10 0 7 0;
#X connect 11 0 1 0;
#X restore 782 385 pd tourne;
#X obj 253 224 noise~;
#X obj 253 249 *~ 0.05;
#X obj 219 425 rot4x4, f 33;
#X obj 611 410 *~ 0.5;
#X obj 726 414 *~ 0.25;
#X obj 792 240 tgl 50 0 empty empty empty 0 -10 0 12 #fcfcfc #000000 #000000 0 1;
#X obj 450 277 hip~ 80;
#X obj 58 47 tgl 20 0 empty empty bouge 22 10 0 12 #fcfcfc #000000 #000000 0 1;
#X obj 800 509 orfilter CONFIG in\$1-eq3;
#X connect 1 0 2 0;
#X connect 1 1 3 0;
#X connect 2 0 5 0;
#X connect 3 0 5 0;
#X connect 4 0 1 0;
#X connect 8 0 9 0;
#X connect 9 0 7 0;
#X connect 10 0 6 0;
#X connect 11 0 26 0;
#X connect 11 0 28 0;
#X connect 11 1 22 0;
#X connect 11 2 23 0;
#X connect 11 3 56 0;
#X connect 11 4 15 0;
#X connect 11 5 16 0;
#X connect 12 0 27 1;
#X connect 15 0 17 0;
#X connect 16 0 17 1;
#X connect 17 0 21 0;
#X connect 17 1 21 1;
#X connect 17 2 21 2;
#X connect 17 3 21 3;
#X connect 18 0 17 2;
#X connect 19 0 17 2;
#X connect 20 0 52 0;
#X connect 20 1 44 0;
#X connect 20 2 43 0;
#X connect 20 3 45 0;
#X connect 21 0 47 0;
#X connect 21 1 53 0;
#X connect 21 2 47 2;
#X connect 21 3 54 0;
#X connect 22 0 46 0;
#X connect 23 0 46 1;
#X connect 24 0 25 0;
#X connect 25 0 24 1;
#X connect 25 0 31 1;
#X connect 26 0 27 0;
#X connect 27 1 34 0;
#X connect 28 0 24 0;
#X connect 29 0 30 0;
#X connect 30 0 32 0;
#X connect 30 1 31 0;
#X connect 31 0 40 0;
#X connect 32 0 24 1;
#X connect 34 0 35 0;
#X connect 34 0 39 0;
#X connect 34 1 38 0;
#X connect 35 0 29 0;
#X connect 35 0 36 0;
#X connect 36 0 35 1;
#X connect 37 0 35 1;
#X connect 38 0 37 0;
#X connect 39 0 38 0;
#X connect 40 0 41 0;
#X connect 41 0 42 0;
#X connect 42 0 33 0;
#X connect 42 0 21 4;
#X connect 43 0 52 2;
#X connect 44 0 52 1;
#X connect 45 0 52 3;
#X connect 46 0 20 0;
#X connect 46 1 20 1;
#X connect 46 2 20 2;
#X connect 46 3 20 3;
#X connect 47 0 14 0;
#X connect 47 1 14 1;
#X connect 47 2 14 2;
#X connect 47 3 14 3;
#X connect 48 0 52 4;
#X connect 49 0 47 4;
#X connect 50 0 51 0;
#X connect 52 0 14 0;
#X connect 52 1 14 1;
#X connect 52 2 14 2;
#X connect 52 3 14 3;
#X connect 53 0 47 1;
#X connect 54 0 47 3;
#X connect 55 0 48 0;
#X connect 55 0 49 0;
#X connect 56 0 17 1;
#X connect 56 0 46 0;
#X connect 57 0 55 0;
#X coords 0 -1 1 1 110 60 1 10 10;
