#N canvas 35 63 838 383 12;
#X obj 33 20 inlet~;
#X obj 34 349 outlet~;
#X obj 33 316 *~;
#X obj 90 20 inlet~;
#X obj 91 349 outlet~;
#X obj 90 316 *~;
#X obj 147 20 inlet~;
#X obj 148 349 outlet~;
#X obj 147 316 *~;
#X obj 204 20 inlet~;
#X obj 205 349 outlet~;
#X obj 204 316 *~;
#X obj 282 15 inlet;
#X obj 383 21 loadbang;
#X obj 282 271 *~;
#X obj 282 241 vline~, f 15;
#X floatatom 421 170 5 0 0 0 - - - 24;
#X msg 282 210 0 2 \, 1 \$1 2;
#X msg 383 49 0;
#X obj 282 109 * 1500;
#X obj 282 84 pow 3;
#X floatatom 421 237 5 0 0 0 - - - 0;
#X obj 282 173 min 1500;
#X obj 472 23 inlet force_short;
#X obj 472 48 sel 0 1, f 12;
#X msg 472 73 1500;
#X obj 282 135 max 100;
#X msg 512 72 285;
#X msg 410 92 285;
#X msg 370 93 100;
#X connect 0 0 2 0;
#X connect 2 0 1 0;
#X connect 3 0 5 0;
#X connect 5 0 4 0;
#X connect 6 0 8 0;
#X connect 8 0 7 0;
#X connect 9 0 11 0;
#X connect 11 0 10 0;
#X connect 12 0 20 0;
#X connect 13 0 18 0;
#X connect 14 0 2 1;
#X connect 14 0 5 1;
#X connect 14 0 8 1;
#X connect 14 0 11 1;
#X connect 15 0 14 0;
#X connect 15 0 14 1;
#X connect 17 0 15 0;
#X connect 18 0 19 0;
#X connect 19 0 26 0;
#X connect 20 0 19 0;
#X connect 22 0 17 0;
#X connect 22 0 21 0;
#X connect 23 0 24 0;
#X connect 24 0 25 0;
#X connect 24 0 29 0;
#X connect 24 1 27 0;
#X connect 25 0 22 1;
#X connect 26 0 16 0;
#X connect 26 0 22 0;
#X connect 27 0 22 1;
#X connect 27 0 26 1;
#X connect 29 0 26 1;
