#N canvas 541 192 702 585 12;
#X declare -path AutoPreset;
#X declare -path zexy -lib zexy;
#X declare -path iemlib -lib iemlib;
#X declare -path .;
#X declare -path effets;
#X declare -path moonlib;
#X declare -path cyclone;
#X declare -path creb -lib creb;
#N canvas 20 208 450 300 declares 0;
#X obj 33 32 declare -path AutoPreset;
#X obj 33 56 declare -path zexy -lib zexy;
#X obj 32 79 declare -path iemlib -lib iemlib;
#X obj 34 194 declare -path .;
#X obj 36 219 declare -path effets;
#X obj 32 103 declare -path moonlib;
#X obj 34 150 declare -path cyclone;
#X obj 33 126 declare -path creb -lib creb;
#X restore 10 6 pd declares;
#N canvas 25 402 450 300 presets 0;
#X obj 74 31 apmaster CONFIG;
#X obj 78 121 apmasterfile CONFIG config.txt;
#X obj 285 96 r CONFIG-save;
#X obj 78 72 loadbang;
#X obj 78 97 bng 20 250 50 0 empty empty empty 0 -10 0 12 #fcfcfc #000000 #000000;
#X connect 2 0 1 1;
#X connect 3 0 4 0;
#X connect 4 0 1 0;
#X restore 10 31 pd presets;
#X obj 108 29 bng 20 250 50 0 CONFIG-save CONFIG-save CONFIG-save 0 -10 0 12 #fc0400 #000000 #000000;
#X obj 11 102 input 1;
#X obj 77 102 input 2;
#X obj 141 102 input 3;
#X obj 207 102 input 4;
#X obj 271 102 input 5;
#X obj 337 102 input 6;
#N canvas 52 170 1040 532 stuff 0;
#X obj 64 12 loadbang;
#X msg 64 51 1;
#X obj 64 76 s inputs-gain-adj;
#X obj 240 34 loadbang;
#X msg 240 59 \; pd dsp 1;
#X obj 63 193 / 127;
#X obj 197 224 / 127;
#X obj 63 248 s inputs-gain-adj;
#X obj 197 249 s master-vol-rcv;
#X obj 63 218 * 2;
#X obj 409 27 ctlin, f 10;
#X obj 409 52 pack f f f;
#X obj 409 77 s CTLIN;
#X obj 555 27 r CTLOUT;
#X obj 555 52 ctlout;
#X obj 409 106 r CTLIN;
#X obj 409 132 list split 2;
#X obj 449 156 == 1;
#X obj 409 182 spigot;
#X obj 409 207 s MPDIN;
#X obj 556 109 r MPDOUT;
#X obj 556 134 list append 1;
#X obj 556 160 s CTLOUT;
#X obj 63 120 r MPDIN;
#X msg 63 145 \$2 \$1;
#X obj 63 170 route 22 23, f 31;
#X obj 66 298 r MPDIN;
#X obj 405 462 s MPDOUT;
#X obj 66 350 route 28 29 30 31;
#X msg 66 379 1;
#X msg 97 379 2;
#X msg 130 379 3;
#X msg 163 379 4;
#X obj 66 415 s MODE;
#X obj 405 283 r MODE;
#X obj 405 308 t b f, f 14;
#X msg 405 333 1 \, 2 \, 3 \, 4;
#X obj 405 358 t f f, f 12;
#X obj 486 383 ==;
#X obj 486 408 * 127;
#X obj 405 383 + 27;
#X obj 405 435 list prepend;
#X msg 197 382 0;
#X floatatom 471 283 5 0 0 0 - - - 0;
#X obj 66 323 route 127 0, f 38;
#X obj 197 350 route 28 29 30 31;
#X obj 720 36 r debut-concert;
#X msg 720 61 reset;
#X obj 720 86 s Timer-TConcert;
#X msg 820 132 1;
#X obj 781 157 spigot;
#X msg 781 182 1;
#X obj 863 32 r fin-concert;
#X msg 863 57 0;
#X obj 843 90 s Timer-TMode;
#X obj 740 229 r MODE;
#X obj 740 279 sel 0;
#X msg 740 304 0;
#X obj 740 334 s Timer-TMode;
#X obj 740 254 change;
#X msg 783 307 reset \, 1;
#X obj 598 442 mpdpad 1;
#X obj 661 442 mpdpad 2;
#X obj 725 442 mpdpad 3;
#X obj 787 441 mpdpad 4;
#X obj 598 307 metro 600;
#X obj 598 268 tgl 20 0 empty empty empty 0 -10 0 12 #fcfcfc #000000 #000000 0 1;
#X obj 598 392 tgl 20 0 empty empty empty 0 -10 0 12 #fcfcfc #000000 #000000 0 1;
#X msg 598 332 1;
#X obj 632 332 del 100;
#X msg 632 357 0;
#X obj 624 207 r BPM;
#X msg 624 232 60000 \$1;
#X obj 624 257 /;
#X floatatom 675 303 5 0 0 0 - - - 0;
#X connect 1 0 2 0;
#X connect 3 0 4 0;
#X connect 5 0 9 0;
#X connect 6 0 8 0;
#X connect 9 0 7 0;
#X connect 10 0 11 0;
#X connect 10 1 11 1;
#X connect 10 2 11 2;
#X connect 11 0 12 0;
#X connect 13 0 14 0;
#X connect 15 0 16 0;
#X connect 16 0 18 0;
#X connect 16 1 17 0;
#X connect 17 0 18 1;
#X connect 18 0 19 0;
#X connect 20 0 21 0;
#X connect 21 0 22 0;
#X connect 23 0 24 0;
#X connect 24 0 25 0;
#X connect 25 0 5 0;
#X connect 25 1 6 0;
#X connect 26 0 44 0;
#X connect 28 0 29 0;
#X connect 28 1 30 0;
#X connect 28 2 31 0;
#X connect 28 3 32 0;
#X connect 29 0 33 0;
#X connect 30 0 33 0;
#X connect 31 0 33 0;
#X connect 32 0 33 0;
#X connect 34 0 35 0;
#X connect 34 0 43 0;
#X connect 35 0 36 0;
#X connect 35 1 38 1;
#X connect 36 0 37 0;
#X connect 37 0 40 0;
#X connect 37 1 38 0;
#X connect 38 0 39 0;
#X connect 39 0 41 1;
#X connect 40 0 41 0;
#X connect 41 0 27 0;
#X connect 42 0 33 0;
#X connect 44 0 28 0;
#X connect 44 1 45 0;
#X connect 45 0 42 0;
#X connect 45 1 42 0;
#X connect 45 2 42 0;
#X connect 45 3 42 0;
#X connect 46 0 47 0;
#X connect 46 0 49 0;
#X connect 47 0 48 0;
#X connect 47 0 54 0;
#X connect 49 0 50 1;
#X connect 50 0 51 0;
#X connect 51 0 48 0;
#X connect 52 0 53 0;
#X connect 53 0 48 0;
#X connect 53 0 54 0;
#X connect 53 0 50 1;
#X connect 55 0 59 0;
#X connect 56 0 57 0;
#X connect 56 1 60 0;
#X connect 56 1 50 0;
#X connect 57 0 58 0;
#X connect 59 0 56 0;
#X connect 60 0 58 0;
#X connect 65 0 68 0;
#X connect 65 0 69 0;
#X connect 66 0 65 0;
#X connect 67 0 64 0;
#X connect 68 0 67 0;
#X connect 69 0 70 0;
#X connect 70 0 67 0;
#X connect 71 0 72 0;
#X connect 72 0 73 0;
#X connect 73 0 65 1;
#X connect 73 0 74 0;
#X restore 10 56 pd stuff;
#N canvas 71 324 382 209 output 0;
#X obj 25 53 vu 20 80 out1-vu 1 -1 -10 0 12 #404040 #000000 0 0;
#X obj 48 53 vu 20 80 out2-vu 2 -1 -10 0 12 #404040 #000000 0 0;
#X obj 71 53 vu 20 80 out3-vu 3 -1 -10 0 12 #404040 #000000 0 0;
#X obj 94 53 vu 20 80 out4-vu 4 -1 -10 0 12 #404040 #000000 0 0;
#X obj 208 23 clone -s 1 output 4;
#X msg 211 72 0.5;
#X obj 131 92 cnv 3 34 3 empty empty empty 20 12 0 12 #000000 #404040 0;
#X obj 138 53 vsl 20 80 0 1 0 0 master-vol-snd master-vol-rcv master\ out -20 -10 0 12 #fc0400 #000000 #000000 0 1;
#X connect 5 0 7 0;
#X coords 0 -1 1 1 170 120 1 20 20;
#X restore 13 359 pd output;
#X obj 12 282 ECHO/main 1;
#X obj 128 282 DISTO/main 2;
#X text 15 82 kick;
#X text 80 81 snare;
#X text 137 81 tom_aigu;
#X text 204 78 tom_bass;
#X text 272 79 hihat;
#X text 336 78 ride;
#X obj 243 282 REVERB/main 3;
#X obj 358 282 CRUSHER/main 4;
#X obj 406 171 cnv 3 34 3 empty empty empty 20 12 0 12 #000000 #404040 0;
#X obj 413 112 vsl 20 120 0 2 0 0 inputs-gain-adj inputs-gain-adj master\ in 0 -9 0 12 #fc8000 #000000 #000000 0 1;
#X obj 519 32 bng 80 250 50 0 debut-concert debut-concert Début\ Concert 0 -10 0 12 #00fc04 #000000 #000000;
#X obj 519 227 Timer TConcert;
#X obj 424 383 Timer TMode;
#X obj 519 137 bng 80 250 50 0 fin-concert fin-concert Fin\ Concert 0 -10 0 12 #f8fc00 #000000 #000000;
#X obj 13 485 recorder;
