#N canvas 343 88 642 424 12;
#X declare -path AutoPreset;
#X declare -path zexy -lib zexy;
#X declare -path iemlib -lib iemlib;
#X declare -path .;
#X declare -path effets;
#X declare -path moonlib;
#X declare -path creb;
#X declare -path cyclone;
#N canvas 20 208 450 300 declares 0;
#X obj 33 32 declare -path AutoPreset;
#X obj 33 56 declare -path zexy -lib zexy;
#X obj 32 79 declare -path iemlib -lib iemlib;
#X obj 34 194 declare -path .;
#X obj 36 219 declare -path effets;
#X obj 32 103 declare -path moonlib;
#X obj 33 126 declare -path creb;
#X obj 34 150 declare -path cyclone;
#X restore 10 6 pd declares;
#N canvas 25 402 450 300 presets 0;
#X obj 74 31 apmaster CONFIG;
#X obj 78 121 apmasterfile CONFIG config.txt;
#X obj 285 96 r CONFIG-save;
#X obj 78 72 loadbang;
#X obj 78 97 bng 20 250 50 0 empty empty empty 0 -10 0 12 #fcfcfc #000000 #000000;
#X connect 2 0 1 1;
#X connect 3 0 4 0;
#X connect 4 0 1 0;
#X restore 10 31 pd presets;
#X obj 108 29 bng 20 250 50 0 CONFIG-save CONFIG-save CONFIG-save 0 -10 0 12 #ff0400 #000000 #000000;
#X obj 11 124 input 1;
#X obj 77 124 input 2;
#X obj 141 124 input 3;
#X obj 207 124 input 4;
#X obj 271 124 input 5;
#X obj 337 124 input 6;
#X obj 404 134 vsl 20 120 0 2 0 0 inputs-gain-adj inputs-gain-adj master\ in 0 -9 0 12 #ff8300 #000000 #000000 0 1;
#N canvas 24 99 709 532 stuff 0;
#X obj 64 26 loadbang;
#X msg 64 51 1;
#X obj 64 76 s inputs-gain-adj;
#X obj 240 34 loadbang;
#X msg 240 59 \; pd dsp 1;
#X obj 63 193 / 127;
#X obj 197 224 / 127;
#X obj 63 248 s inputs-gain-adj;
#X obj 197 249 s master-vol-rcv;
#X obj 63 218 * 2;
#X obj 409 27 ctlin, f 10;
#X obj 409 52 pack f f f;
#X obj 409 77 s CTLIN;
#X obj 555 27 r CTLOUT;
#X obj 555 52 ctlout;
#X obj 409 106 r CTLIN;
#X obj 409 132 list split 2;
#X obj 449 156 == 1;
#X obj 409 182 spigot;
#X obj 409 207 s MPDIN;
#X obj 556 109 r MPDOUT;
#X obj 556 134 list append 1;
#X obj 556 160 s CTLOUT;
#X obj 63 120 r MPDIN;
#X msg 63 145 \$2 \$1;
#X obj 63 170 route 22 23, f 31;
#X obj 66 298 r MPDIN;
#X obj 405 462 s MPDOUT;
#X obj 66 350 route 28 29 30 31;
#X msg 66 379 1;
#X msg 97 379 2;
#X msg 130 379 3;
#X msg 163 379 4;
#X obj 66 415 s MODE;
#X obj 405 283 r MODE;
#X obj 405 308 t b f, f 14;
#X msg 405 333 1 \, 2 \, 3 \, 4;
#X obj 405 358 t f f, f 12;
#X obj 486 383 ==;
#X obj 486 408 * 127;
#X obj 405 383 + 27;
#X obj 405 435 list prepend;
#X msg 197 382 0;
#X floatatom 471 283 5 0 0 0 - - - 0;
#X obj 66 323 route 127 0, f 38;
#X obj 197 350 route 28 29 30 31;
#X connect 0 0 1 0;
#X connect 1 0 2 0;
#X connect 3 0 4 0;
#X connect 5 0 9 0;
#X connect 6 0 8 0;
#X connect 9 0 7 0;
#X connect 10 0 11 0;
#X connect 10 1 11 1;
#X connect 10 2 11 2;
#X connect 11 0 12 0;
#X connect 13 0 14 0;
#X connect 15 0 16 0;
#X connect 16 0 18 0;
#X connect 16 1 17 0;
#X connect 17 0 18 1;
#X connect 18 0 19 0;
#X connect 20 0 21 0;
#X connect 21 0 22 0;
#X connect 23 0 24 0;
#X connect 24 0 25 0;
#X connect 25 0 5 0;
#X connect 25 1 6 0;
#X connect 26 0 44 0;
#X connect 28 0 29 0;
#X connect 28 1 30 0;
#X connect 28 2 31 0;
#X connect 28 3 32 0;
#X connect 29 0 33 0;
#X connect 30 0 33 0;
#X connect 31 0 33 0;
#X connect 32 0 33 0;
#X connect 34 0 35 0;
#X connect 34 0 43 0;
#X connect 35 0 36 0;
#X connect 35 1 38 1;
#X connect 36 0 37 0;
#X connect 37 0 40 0;
#X connect 37 1 38 0;
#X connect 38 0 39 0;
#X connect 39 0 41 1;
#X connect 40 0 41 0;
#X connect 41 0 27 0;
#X connect 42 0 33 0;
#X connect 44 0 28 0;
#X connect 44 1 45 0;
#X connect 45 0 42 0;
#X connect 45 1 42 0;
#X connect 45 2 42 0;
#X connect 45 3 42 0;
#X restore 11 55 pd stuff;
#N canvas 53 323 382 209 output 0;
#X obj 25 53 vu 20 80 out1-vu 1 -1 -10 0 12 #404040 #000000 0 0;
#X obj 48 53 vu 20 80 out2-vu 2 -1 -10 0 12 #404040 #000000 0 0;
#X obj 71 53 vu 20 80 out3-vu 3 -1 -10 0 12 #404040 #000000 0 0;
#X obj 94 53 vu 20 80 out4-vu 4 -1 -10 0 12 #404040 #000000 0 0;
#X obj 126 53 vsl 20 80 0 1 0 0 master-vol-snd master-vol-rcv empty 0 -9 0 12 #ff0400 #000000 #000000 0 1;
#X obj 164 30 clone -s 1 output 4;
#X coords 0 -1 1 1 130 120 1 20 20;
#X restore 11 269 pd output;
#X obj 163 278 ECHO/main 1;
#X obj 279 278 DISTO/main 2;
#X text 15 104 kick;
#X text 80 103 snare;
#X text 137 103 tom_aigu;
#X text 204 100 tom_bass;
#X text 272 101 hihat;
#X text 336 100 ride;
#X obj 394 278 REVERB/main 3;
#X obj 509 278 CRUSHER/main 4;
