#N canvas 226 172 703 452 12;
#X obj 104 123 vsl 15 80 0 2 0 0 in\$1-gain-snd in\$1-gain-rcv empty 0 -9 0 12 #ff8300 #000000 #000000 0 1;
#X obj 124 123 vu 20 80 in\$1-vu empty -1 -10 0 12 #404040 #000000 0 0;
#X obj 219 19 adc~ \$1;
#X obj 236 47 r in\$1-gain-snd;
#X obj 236 128 pow 2;
#X obj 265 100 t b f;
#X obj 265 74 r inputs-gain-adj;
#X obj 236 216 line~;
#X obj 219 244 *~;
#X msg 236 191 \$1 50;
#X obj 319 153 r in\$1-lop-snd;
#X obj 319 229 mtof;
#X obj 319 203 + 20;
#X obj 319 178 * 50;
#X obj 345 265 i;
#X obj 345 315 s in\$1-lop-rcv;
#X obj 277 305 env~;
#X obj 277 354 s in\$1-vu;
#X obj 277 330 - 88;
#X obj 219 269 hp4_butt~ 20 100;
#X obj 220 420 s~ input\$1;
#X obj 443 37 apf CONFIG in\$1-gain in\$1-gain;
#X obj 443 62 apf CONFIG in\$1-lop in\$1-lop;
#N canvas 650 52 423 596 \$0-eq 0;
#X obj 112 13 hsl 80 20 0 1 0 0 in\$1-lop-snd in\$1-lop-rcv locut:100 -2 10 0 12 #fcfcfc #ff8300 #000000 0 1;
#X obj 17 36 orfilter CONFIG in\$1-eq1;
#X obj 16 8 inlet~;
#X obj 17 137 orfilter CONFIG in\$1-eq2;
#X obj 17 238 orfilter CONFIG in\$1-eq3;
#X obj 17 339 orfilter CONFIG in\$1-eq4;
#X obj 16 544 outlet~;
#X obj 44 495 hsl 170 20 0 1 0 0 empty empty empty -2 -10 0 12 #fcfcfc #000000 #000000 0 1;
#N canvas 11 68 482 300 monitor-delay 0;
#X obj 33 74 *~;
#X obj 51 45 pow 2;
#X obj 33 99 delwrite~ \$0-del 1000;
#X obj 35 135 delread~ \$0-del 1000;
#X obj 34 269 throw~ output1;
#X obj 33 11 inlet~;
#X obj 98 11 inlet;
#X obj 260 126 switch~;
#X obj 64 242 throw~ output2;
#X obj 95 211 throw~ output3;
#X obj 122 186 throw~ output4;
#X obj 307 70 tgl 20 0 empty empty empty 0 -10 0 12 #fcfcfc #000000 #000000 0 1;
#X obj 260 35 r in\$1-monitor;
#X connect 0 0 2 0;
#X connect 1 0 0 1;
#X connect 3 0 4 0;
#X connect 3 0 8 0;
#X connect 3 0 9 0;
#X connect 3 0 10 0;
#X connect 5 0 0 0;
#X connect 6 0 1 0;
#X connect 12 0 7 0;
#X connect 12 0 11 0;
#X restore 33 521 pd monitor-delay;
#X obj 41 444 loadbang;
#X msg 41 469 0.75;
#X obj 225 494 tgl 20 0 in\$1-monitor in\$1-monitor mon 2 10 0 10 #fcfcfc #000000 #000000 0 1;
#X connect 1 0 3 0;
#X connect 2 0 1 0;
#X connect 3 0 4 0;
#X connect 4 0 5 0;
#X connect 5 0 6 0;
#X connect 5 0 8 0;
#X connect 7 0 8 1;
#X connect 9 0 10 0;
#X connect 10 0 7 0;
#X restore 220 388 pd \$0-eq;
#X obj 104 216 bng 20 250 50 0 empty empty eq 4 10 0 10 #faff00 #000000 #000000;
#X msg 104 290 vis 1;
#X obj 104 315 s pd-\$0-eq;
#X msg 345 290 label locut:\$1;
#X obj 128 216 tgl 20 0 in\$1-monitor in\$1-monitor mon 2 10 0 10 #fcfcfc #000000 #000000 0 1;
#X obj 236 101 * 0;
#X obj 128 242 tgl 20 0 in\$1-mute in\$1-mute mute 2 10 0 10 #fcfcfc #000000 #000000 0 1;
#X obj 236 160 * 1;
#X obj 319 101 r in\$1-mute;
#X obj 319 126 == 0;
#X obj 266 160 t b f;
#X connect 2 0 8 0;
#X connect 3 0 29 0;
#X connect 4 0 31 0;
#X connect 5 0 29 0;
#X connect 5 1 29 1;
#X connect 6 0 5 0;
#X connect 7 0 8 1;
#X connect 8 0 19 0;
#X connect 9 0 7 0;
#X connect 10 0 13 0;
#X connect 11 0 14 0;
#X connect 11 0 19 1;
#X connect 12 0 11 0;
#X connect 13 0 12 0;
#X connect 14 0 27 0;
#X connect 16 0 18 0;
#X connect 18 0 17 0;
#X connect 19 0 16 0;
#X connect 19 0 23 0;
#X connect 23 0 20 0;
#X connect 24 0 25 0;
#X connect 25 0 26 0;
#X connect 27 0 15 0;
#X connect 29 0 4 0;
#X connect 31 0 9 0;
#X connect 32 0 33 0;
#X connect 33 0 34 0;
#X connect 34 0 31 0;
#X connect 34 1 31 1;
#X coords 0 -1 1 1 60 170 1 100 100;
