#N canvas 72 133 577 253 12;
#X obj 14 167 throw~ output1;
#X obj 125 168 throw~ output2;
#X obj 238 168 throw~ output3;
#X obj 353 169 throw~ output4;
#X obj 14 13 inlet~;
#X obj 124 14 inlet~;
#X obj 237 21 inlet~;
#X obj 352 21 inlet~;
#X obj 436 23 r \$1-master;
#X obj 436 49 pow 2;
#X msg 436 74 \$1 10;
#X obj 436 99 line~;
#X obj 14 142 *~;
#X obj 125 143 *~;
#X obj 238 143 *~;
#X obj 353 144 *~;
#X connect 4 0 12 0;
#X connect 5 0 13 0;
#X connect 6 0 14 0;
#X connect 7 0 15 0;
#X connect 8 0 9 0;
#X connect 9 0 10 0;
#X connect 10 0 11 0;
#X connect 11 0 15 1;
#X connect 11 0 14 1;
#X connect 11 0 13 1;
#X connect 11 0 12 1;
#X connect 12 0 0 0;
#X connect 13 0 1 0;
#X connect 14 0 2 0;
#X connect 15 0 3 0;
