#N canvas 43 192 825 318 12;
#X obj 51 46 r~ input1;
#X obj 298 45 r~ input2;
#X obj 50 149 *~;
#X msg 179 58 \$1 1000;
#X obj 179 83 line~;
#X obj 178 115 *~;
#X obj 224 149 *~;
#X obj 602 47 r~ input5;
#X obj 692 47 r~ input6;
#X obj 406 48 r~ input3;
#X obj 508 48 r~ input4;
#X obj 400 148 *~;
#X obj 498 149 *~;
#X obj 594 146 *~;
#X obj 692 147 *~;
#X obj 50 174 outlet~;
#X obj 223 174 outlet~;
#X obj 399 178 outlet~;
#X obj 499 178 outlet~;
#X obj 594 178 outlet~;
#X obj 692 179 outlet~;
#X obj 179 33 r \$1-on-snd;
#X connect 0 0 2 0;
#X connect 1 0 6 0;
#X connect 2 0 15 0;
#X connect 3 0 4 0;
#X connect 4 0 5 0;
#X connect 4 0 5 1;
#X connect 5 0 2 1;
#X connect 5 0 6 1;
#X connect 5 0 11 1;
#X connect 5 0 12 1;
#X connect 5 0 13 1;
#X connect 5 0 14 1;
#X connect 6 0 16 0;
#X connect 7 0 13 0;
#X connect 8 0 14 0;
#X connect 9 0 11 0;
#X connect 10 0 12 0;
#X connect 11 0 17 0;
#X connect 12 0 18 0;
#X connect 13 0 19 0;
#X connect 14 0 20 0;
#X connect 21 0 3 0;
