#N canvas 225 209 450 300 12;
#X obj 42 21 notein 1;
#X obj 42 46 pack f f;
#X obj 42 96 sel 0;
#X obj 74 123 b;
#X obj 74 148 tgl 20 0 empty empty empty 0 -10 0 12 #fcfcfc #000000 #000000 0 1;
#X obj 42 176 f;
#X obj 144 25 loadbang;
#X obj 144 50 f \$1;
#X obj 151 233 outlet;
#X obj 224 23 inlet;
#X floatatom 233 137 5 0 0 0 - - - 0;
#X obj 42 71 route 36;
#X obj 42 201 list prepend 36;
#X obj 42 233 noteout 1;
#X obj 144 75 + 35;
#X connect 0 0 1 0;
#X connect 0 0 10 0;
#X connect 0 1 1 1;
#X connect 1 0 11 0;
#X connect 2 0 5 0;
#X connect 2 1 3 0;
#X connect 3 0 4 0;
#X connect 4 0 5 1;
#X connect 4 0 5 0;
#X connect 4 0 8 0;
#X connect 5 0 12 0;
#X connect 6 0 7 0;
#X connect 7 0 14 0;
#X connect 9 0 4 0;
#X connect 11 0 2 0;
#X connect 12 0 13 0;
#X connect 14 0 11 1;
#X connect 14 0 12 1;
