#N canvas 139 232 542 355 12;
#X obj 106 58 inlet~;
#X obj 104 300 outlet~;
#X obj 123 89 env~;
#X obj 123 114 moses \$1, f 11;
#X obj 123 139 b;
#X obj 123 165 list 0 \$3;
#X obj 123 205 line~;
#X obj 123 230 *~;
#X obj 197 139 b;
#X obj 197 165 list 1 \$2;
#X obj 105 260 *~;
#X obj 216 60 inlet seuil;
#X obj 311 59 inlet temps_attaque;
#X obj 458 58 inlet temps_release;
#X msg 311 84 1 \$1;
#X msg 458 83 0 \$1;
#X obj 355 174 > \$1;
#X obj 355 199 change;
#X obj 14 28 tgl 20 0 empty empty empty 0 -10 0 12 #fcfcfc #000000 #000000 0 1;
#X obj 160 55 inlet~;
#X obj 355 281 outlet;
#X connect 0 0 10 0;
#X connect 2 0 3 0;
#X connect 2 0 16 0;
#X connect 3 0 4 0;
#X connect 3 1 8 0;
#X connect 4 0 5 0;
#X connect 5 0 6 0;
#X connect 6 0 7 0;
#X connect 6 0 7 1;
#X connect 7 0 10 1;
#X connect 8 0 9 0;
#X connect 9 0 6 0;
#X connect 10 0 1 0;
#X connect 11 0 3 1;
#X connect 11 0 16 1;
#X connect 12 0 14 0;
#X connect 13 0 15 0;
#X connect 14 0 9 1;
#X connect 15 0 5 1;
#X connect 16 0 17 0;
#X connect 17 0 18 0;
#X connect 17 0 20 0;
#X connect 19 0 2 0;
#X coords 0 -1 1 1 85 40 1 10 10;
