#N canvas 476 318 450 300 12;
#X obj 87 32 catch~ output\$1;
#X obj 84 219 dac~ \$1;
#X obj 86 87 *~;
#X obj 253 35 r master-vol-snd;
#X obj 253 60 pow 2;
#X msg 253 85 \$1 50;
#X obj 253 110 line~;
#X obj 252 148 env~;
#X obj 252 173 - 88;
#X obj 252 198 s out\$1-vu;
#X obj 131 166 limiter~;
#X obj 85 168 z~ 64;
#X obj 85 193 *~, f 7;
#X obj 86 60 hip~ 5;
#X obj 145 219 s~ copy-dac\$1;
#X connect 0 0 13 0;
#X connect 2 0 7 0;
#X connect 2 0 10 0;
#X connect 2 0 11 0;
#X connect 3 0 4 0;
#X connect 4 0 5 0;
#X connect 5 0 6 0;
#X connect 6 0 2 1;
#X connect 7 0 8 0;
#X connect 8 0 9 0;
#X connect 10 0 12 1;
#X connect 11 0 12 0;
#X connect 12 0 1 0;
#X connect 12 0 14 0;
#X connect 13 0 2 0;
#X coords 0 300 1 299 130 120 0;
