#N canvas 360 68 1006 508 12;
#X obj 107 123 tgl 20 0 empty empty empty 0 -10 0 12 #fcfcfc #000000 #000000 0 1;
#X obj 246 173 metro 100;
#X obj 246 198 f;
#X obj 278 199 + 1;
#X msg 257 143 0;
#X floatatom 180 124 5 0 0 3 sec - - 12;
#X obj 246 223 t f f;
#X obj 306 263 mod 600;
#X obj 306 295 / 10;
#X floatatom 139 124 5 0 0 3 mn - - 12;
#X obj 246 252 div 10;
#X obj 246 277 div 60;
#X obj 306 322 f;
#X obj 365 273 mod 2;
#X obj 365 248 div 4;
#X obj 365 298 tgl 20 0 empty empty empty 0 -10 0 12 #fcfcfc #000000 #000000 0 1;
#X obj 365 323 * 13;
#X msg 365 348 color \$1 22 22;
#X obj 550 347 writesf~ 12, f 56;
#X obj 691 318 adc~ 1 2 3 4 5 6 7 8, f 36;
#X obj 549 206 r~ copy-dac1;
#X obj 584 235 r~ copy-dac2;
#X obj 620 263 r~ copy-dac3;
#X obj 655 290 r~ copy-dac4;
#X obj 488 77 date, f 18;
#X obj 625 78 time, f 18;
#X obj 488 121 pack f f f f f f, f 26;
#X obj 488 52 t b b, f 20;
#X obj 488 26 bng 20 250 50 0 empty empty empty 0 -10 0 12 #fcfcfc #000000 #000000;
#X obj 370 20 sel 0 1;
#X msg 372 125 stop;
#X msg 338 202 0;
#X msg 546 178 Record_SoloDRMS;
#X msg 488 146 open Record_SoloDRMS/\$1-\$2-\$3_\$4h_\$5mn_\$6s.wav \, start;
#X connect 0 0 1 0;
#X connect 0 0 29 0;
#X connect 1 0 2 0;
#X connect 2 0 3 0;
#X connect 2 0 6 0;
#X connect 3 0 2 1;
#X connect 4 0 2 0;
#X connect 6 0 10 0;
#X connect 6 1 7 0;
#X connect 6 1 14 0;
#X connect 7 0 8 0;
#X connect 8 0 12 0;
#X connect 10 0 11 0;
#X connect 11 0 9 0;
#X connect 12 0 5 0;
#X connect 13 0 15 0;
#X connect 14 0 13 0;
#X connect 15 0 16 0;
#X connect 16 0 17 0;
#X connect 17 0 0 0;
#X connect 19 0 18 4;
#X connect 19 1 18 5;
#X connect 19 2 18 6;
#X connect 19 3 18 7;
#X connect 19 4 18 8;
#X connect 19 5 18 9;
#X connect 19 6 18 10;
#X connect 19 7 18 11;
#X connect 20 0 18 0;
#X connect 21 0 18 1;
#X connect 22 0 18 2;
#X connect 23 0 18 3;
#X connect 24 0 26 0;
#X connect 24 1 26 1;
#X connect 24 2 26 2;
#X connect 25 0 26 3;
#X connect 25 1 26 4;
#X connect 25 2 26 5;
#X connect 26 0 33 0;
#X connect 27 0 24 0;
#X connect 27 1 25 0;
#X connect 28 0 27 0;
#X connect 29 0 30 0;
#X connect 29 0 31 0;
#X connect 29 1 27 0;
#X connect 30 0 18 0;
#X connect 31 0 15 0;
#X connect 33 0 18 0;
#X coords 0 -1 1 1 120 60 1 100 100;
