#N canvas 458 216 631 461 12;
#X obj 305 36 r Timer-\$1;
#X obj 107 123 tgl 20 0 empty empty empty 0 -10 0 12 #fcfcfc #000000 #000000 0 1;
#X obj 305 61 route reset;
#X obj 326 186 metro 100;
#X obj 326 211 f;
#X obj 358 212 + 1;
#X msg 337 156 0;
#X obj 389 62 route float;
#X floatatom 183 151 5 0 0 3 sec - - 24;
#X obj 326 236 t f f;
#X obj 386 276 mod 600;
#X obj 386 308 / 10;
#X floatatom 106 150 5 0 0 3 mn - - 24;
#X obj 326 265 div 10;
#X obj 326 290 div 60;
#X obj 184 122 bng 20 250 50 0 empty empty reset 22 10 0 12 #ff0400 #000000 #000000;
#X obj 386 335 i;
#X connect 0 0 2 0;
#X connect 1 0 3 0;
#X connect 2 0 6 0;
#X connect 2 1 7 0;
#X connect 3 0 4 0;
#X connect 4 0 5 0;
#X connect 4 0 9 0;
#X connect 5 0 4 1;
#X connect 6 0 4 0;
#X connect 7 0 1 0;
#X connect 9 0 13 0;
#X connect 9 1 10 0;
#X connect 10 0 11 0;
#X connect 11 0 16 0;
#X connect 13 0 14 0;
#X connect 14 0 12 0;
#X connect 15 0 6 0;
#X connect 16 0 8 0;
#X coords 0 -1 1 1 160 120 1 100 100;
