#N canvas 434 53 910 426 12;
#X obj 15 46 tgl 20 0 \$0-on-snd \$0-on-rcv micros_inactif 0 -10 0 12 #fcfcfc #000000 #000000 0 1;
#X obj 133 39 sel 0 1, f 44;
#X msg 133 64 label micros_inactif;
#X msg 285 64 label micros_actif;
#X obj 133 14 r \$0-on-snd;
#X obj 133 89 s \$0-on-rcv;
#X msg 579 62 clear;
#X obj 778 79 s \$0-on-rcv;
#X obj 778 27 r MODE;
#X obj 778 52 == \$1;
#X obj 570 40 bng 20 250 50 0 empty empty clear 22 10 0 12 #ff0400 #000000 #ff0400;
#X floatatom 905 169 5 0 0 0 - - - 0;
#X obj 809 299 atan~;
#X obj 17 131 mode-inputs \$0, f 116;
#X obj 809 326 *~ 0.1;
#X floatatom 758 168 5 0 0 0 - - - 0;
#X obj 662 298 atan~;
#X obj 662 325 *~ 0.1;
#X obj 809 200 noisegate2 78 20 20;
#X floatatom 112 165 5 0 0 0 - - - 0;
#X obj 14 280 atan~;
#X obj 15 252 *~ 200;
#X floatatom 264 160 5 0 0 0 - - - 0;
#X obj 177 264 atan~;
#X obj 178 236 *~ 200;
#X obj 179 382 *~ 0.2;
#X obj 179 353 hip~ 80;
#X floatatom 411 174 5 0 0 0 - - - 0;
#X obj 352 280 atan~;
#X obj 353 252 *~ 200;
#X obj 353 392 *~ 0.2;
#X obj 353 363 hip~ 80;
#X floatatom 564 175 5 0 0 0 - - - 0;
#X obj 488 286 atan~;
#X obj 489 258 *~ 200;
#X obj 487 398 *~ 0.2;
#X obj 487 369 hip~ 80;
#X obj 16 196 noisegate 75 1 1000;
#X obj 179 188 noisegate 82 1 250;
#X obj 352 201 noisegate 82 1 250;
#X obj 490 202 noisegate 82 1 1000;
#X obj 661 255 *~ 50;
#X obj 808 256 *~ 50;
#X obj 780 470 hsl 170 20 0 2 0 1 \$0-master \$0-master empty -2 -10 0 12 #ff0400 #000000 #000000 9000 1;
#X obj 192 663 mode-outputs \$0, f 84;
#X obj 833 166 hip~ 600;
#X obj 178 412 rnd-diff, f 9;
#X obj 487 423 rnd-diff, f 9;
#X obj 354 420 rnd-diff, f 9;
#X obj 14 395 lop~ 2000;
#X obj 14 425 *~ 0.25;
#X obj 990 197 apmaster \$0-ap;
#X obj 990 269 apmasterfile \$0-ap ap.txt;
#X obj 990 220 loadbang;
#X obj 990 245 bng 20 250 50 0 empty empty empty 0 -10 0 12 #00ff04 #000000 #000000;
#X obj 1161 243 bng 20 250 50 0 empty empty empty 0 -10 0 12 #ff0400 #000000 #000000;
#X obj 992 103 hsl 200 15 0 1 0 0 empty empty empty -2 -6 0 8 #d8fcd8 #000000 #000000 0 1;
#X obj 990 20 hradio 15 1 0 4 empty empty empty 0 -8 0 10 #00fc04 #000000 #000000 0;
#X obj 1112 20 hradio 15 1 0 4 empty empty empty 0 -8 0 10 #fc0400 #000000 #000000 0;
#X msg 990 38 _all_ load \$1;
#X msg 1112 39 _all_ store \$1;
#X msg 989 143 _all_ load \$1;
#X floatatom 989 122 5 0 0 0 - - - 0;
#X obj 990 63 s \$0-ap-pattern-snd;
#X obj 989 169 s \$0-ap-pattern-snd;
#X obj 178 291 apcheb \$0-ap cheb1;
#X obj 353 304 apcheb \$0-ap cheb2;
#X obj 13 333 apcheb \$0-ap cheb3;
#X obj 14 305 hip~ 40;
#X obj 348 528 *~ -0.3;
#X obj 349 500 delaudio 40;
#X obj 348 554 rev3~ 95 72 2000 50, f 21;
#X obj 694 172 hip~ 800;
#X obj 662 199 noisegate2 70 20 20;
#X obj 634 364 *~ 0.1;
#X obj 809 368 *~ 0.1;
#X obj 487 310 apcheb \$0-ap cheb4;
#X obj 661 15 r \$0-on-snd;
#X obj 661 42 sel 1;
#X obj 661 92 s BPM;
#X msg 661 67 60;
#X connect 1 0 2 0;
#X connect 1 1 3 0;
#X connect 2 0 5 0;
#X connect 3 0 5 0;
#X connect 4 0 1 0;
#X connect 8 0 9 0;
#X connect 9 0 7 0;
#X connect 10 0 6 0;
#X connect 11 0 18 2;
#X connect 12 0 14 0;
#X connect 13 0 37 0;
#X connect 13 1 38 0;
#X connect 13 2 39 0;
#X connect 13 3 40 0;
#X connect 13 4 72 0;
#X connect 13 4 73 0;
#X connect 13 5 45 0;
#X connect 13 5 18 0;
#X connect 14 0 44 2;
#X connect 14 0 44 1;
#X connect 14 0 75 0;
#X connect 15 0 73 2;
#X connect 16 0 17 0;
#X connect 17 0 44 3;
#X connect 17 0 44 0;
#X connect 17 0 74 0;
#X connect 18 0 42 0;
#X connect 19 0 37 2;
#X connect 20 0 68 0;
#X connect 21 0 20 0;
#X connect 22 0 38 2;
#X connect 23 0 65 0;
#X connect 24 0 23 0;
#X connect 25 0 46 0;
#X connect 25 0 70 0;
#X connect 26 0 25 0;
#X connect 27 0 39 2;
#X connect 28 0 66 0;
#X connect 29 0 28 0;
#X connect 30 0 48 0;
#X connect 30 0 70 0;
#X connect 31 0 30 0;
#X connect 32 0 40 2;
#X connect 33 0 76 0;
#X connect 34 0 33 0;
#X connect 35 0 47 0;
#X connect 35 0 70 0;
#X connect 36 0 35 0;
#X connect 37 0 21 0;
#X connect 38 0 24 0;
#X connect 38 1 46 1;
#X connect 39 0 29 0;
#X connect 39 1 48 1;
#X connect 40 0 34 0;
#X connect 40 1 47 1;
#X connect 41 0 16 0;
#X connect 42 0 12 0;
#X connect 45 0 18 1;
#X connect 46 0 44 0;
#X connect 46 1 44 1;
#X connect 46 2 44 2;
#X connect 46 3 44 3;
#X connect 47 0 44 0;
#X connect 47 1 44 1;
#X connect 47 2 44 2;
#X connect 47 3 44 3;
#X connect 48 0 44 0;
#X connect 48 1 44 1;
#X connect 48 2 44 2;
#X connect 48 3 44 3;
#X connect 49 0 50 0;
#X connect 50 0 44 0;
#X connect 50 0 44 1;
#X connect 50 0 44 2;
#X connect 50 0 44 3;
#X connect 53 0 54 0;
#X connect 54 0 52 0;
#X connect 55 0 52 1;
#X connect 56 0 62 0;
#X connect 57 0 59 0;
#X connect 58 0 60 0;
#X connect 59 0 63 0;
#X connect 60 0 63 0;
#X connect 61 0 64 0;
#X connect 62 0 61 0;
#X connect 65 0 26 0;
#X connect 66 0 31 0;
#X connect 67 0 49 0;
#X connect 68 0 67 0;
#X connect 69 0 71 0;
#X connect 70 0 69 0;
#X connect 71 0 44 0;
#X connect 71 1 44 1;
#X connect 71 2 44 2;
#X connect 71 3 44 3;
#X connect 72 0 73 1;
#X connect 73 0 41 0;
#X connect 74 0 44 2;
#X connect 74 0 44 1;
#X connect 75 0 44 3;
#X connect 75 0 44 0;
#X connect 76 0 36 0;
#X connect 77 0 78 0;
#X connect 78 0 80 0;
#X connect 80 0 79 0;
#X coords 0 -1 1 1 110 60 1 10 10;
