#N canvas 233 30 982 633 12;
#X obj 15 46 tgl 20 0 \$0-on-snd \$0-on-rcv micros_actif 0 -10 0 12 #fcfcfc #000000 #000000 0 1;
#X obj 133 39 sel 0 1, f 44;
#X msg 133 64 label micros_inactif;
#X msg 285 64 label micros_actif;
#X obj 133 14 r \$0-on-snd;
#X obj 133 89 s \$0-on-rcv;
#X msg 579 62 clear;
#X obj 778 79 s \$0-on-rcv;
#X obj 778 27 r MODE;
#X obj 778 52 == \$1;
#X obj 570 40 bng 20 250 50 0 empty empty clear 22 10 0 12 #ff0400 #000000 #ff0400;
#X floatatom 905 169 5 0 0 0 - - - 0;
#X obj 809 299 atan~;
#X obj 17 131 mode-inputs \$0, f 116;
#X obj 809 326 *~ 0.1;
#X floatatom 758 168 5 0 0 0 - - - 0;
#X obj 662 298 atan~;
#X obj 662 325 *~ 0.1;
#X obj 694 172 hip~ 300;
#X obj 809 200 noisegate2 78 20 20;
#X obj 662 199 noisegate2 78 20 20;
#X floatatom 112 165 5 0 0 0 - - - 0;
#X obj 14 280 atan~;
#X obj 15 252 *~ 200;
#X obj 14 309 hip~ 80;
#X floatatom 254 170 5 0 0 0 - - - 0;
#X obj 178 281 atan~;
#X obj 179 253 *~ 200;
#X obj 178 339 *~ 0.2;
#X obj 178 310 hip~ 80;
#X floatatom 411 174 5 0 0 0 - - - 0;
#X obj 352 285 atan~;
#X obj 353 257 *~ 200;
#X obj 352 343 *~ 0.2;
#X obj 352 314 hip~ 80;
#X floatatom 564 175 5 0 0 0 - - - 0;
#X obj 488 286 atan~;
#X obj 489 258 *~ 200;
#X obj 488 344 *~ 0.2;
#X obj 488 315 hip~ 80;
#X obj 16 196 noisegate 75 1 1000;
#X obj 180 197 noisegate 82 1 250;
#X obj 352 201 noisegate 82 1 250;
#X obj 490 202 noisegate 82 1 1000;
#X obj 661 255 *~ 50;
#X obj 808 256 *~ 50;
#X obj 780 470 hsl 170 20 0 2 0 1 \$0-master \$0-master empty -2 -10 0 12 #ff0400 #000000 #000000 9000 1;
#X obj 190 557 mode-outputs \$0, f 84;
#X obj 833 166 hip~ 600;
#X obj 177 369 rnd-diff, f 9;
#X obj 13 437 rnd-diff, f 9;
#X obj 488 369 rnd-diff, f 9;
#X obj 353 371 rnd-diff, f 9;
#X obj 13 339 lop~ 2000;
#X obj 13 369 *~ 0.25;
#X connect 1 0 2 0;
#X connect 1 1 3 0;
#X connect 2 0 5 0;
#X connect 3 0 5 0;
#X connect 4 0 1 0;
#X connect 8 0 9 0;
#X connect 9 0 7 0;
#X connect 10 0 6 0;
#X connect 11 0 19 2;
#X connect 12 0 14 0;
#X connect 13 0 40 0;
#X connect 13 1 41 0;
#X connect 13 2 42 0;
#X connect 13 3 43 0;
#X connect 13 4 18 0;
#X connect 13 4 20 0;
#X connect 13 5 48 0;
#X connect 13 5 19 0;
#X connect 14 0 47 2;
#X connect 14 0 47 1;
#X connect 15 0 20 2;
#X connect 16 0 17 0;
#X connect 17 0 47 3;
#X connect 17 0 47 0;
#X connect 18 0 20 1;
#X connect 19 0 45 0;
#X connect 20 0 44 0;
#X connect 21 0 40 2;
#X connect 22 0 24 0;
#X connect 23 0 22 0;
#X connect 24 0 53 0;
#X connect 25 0 41 2;
#X connect 26 0 29 0;
#X connect 27 0 26 0;
#X connect 28 0 49 0;
#X connect 29 0 28 0;
#X connect 30 0 42 2;
#X connect 31 0 34 0;
#X connect 32 0 31 0;
#X connect 33 0 52 0;
#X connect 34 0 33 0;
#X connect 35 0 43 2;
#X connect 36 0 39 0;
#X connect 37 0 36 0;
#X connect 38 0 51 0;
#X connect 39 0 38 0;
#X connect 40 0 23 0;
#X connect 40 1 50 1;
#X connect 41 0 27 0;
#X connect 41 1 49 1;
#X connect 42 0 32 0;
#X connect 42 1 52 1;
#X connect 43 0 37 0;
#X connect 43 1 51 1;
#X connect 44 0 16 0;
#X connect 45 0 12 0;
#X connect 48 0 19 1;
#X connect 49 0 47 0;
#X connect 49 1 47 1;
#X connect 49 2 47 2;
#X connect 49 3 47 3;
#X connect 50 0 47 0;
#X connect 50 1 47 1;
#X connect 50 2 47 2;
#X connect 50 3 47 3;
#X connect 51 0 47 0;
#X connect 51 1 47 1;
#X connect 51 2 47 2;
#X connect 51 3 47 3;
#X connect 52 0 47 0;
#X connect 52 1 47 1;
#X connect 52 2 47 2;
#X connect 52 3 47 3;
#X connect 53 0 54 0;
#X connect 54 0 47 0;
#X connect 54 0 47 1;
#X connect 54 0 47 2;
#X connect 54 0 47 3;
#X coords 0 -1 1 1 110 60 1 10 10;
