#N canvas 267 30 982 633 12;
#X obj 15 46 tgl 20 0 \$0-on-snd \$0-on-rcv micros_inactif 0 -10 0 12 #fcfcfc #000000 #000000 0 1;
#X obj 141 52 sel 0 1, f 44;
#X msg 141 77 label micros_inactif;
#X msg 293 77 label micros_actif;
#X obj 141 27 r \$0-on-snd;
#X obj 141 102 s \$0-on-rcv;
#X obj 82 141 r~ input1;
#X obj 375 146 r~ input2;
#X obj 81 244 *~;
#X obj 210 128 r \$0-on-snd;
#X msg 210 153 \$1 1000;
#X obj 210 178 line~;
#X obj 209 210 *~;
#X obj 255 244 *~;
#X obj 27 462 vd~ \$0-del1;
#X obj 113 462 vd~ \$0-del2;
#X obj 390 195 hip~ 4000;
#X obj 315 195 hip~ 150;
#X floatatom 329 251 5 0 0 0 - - - 0;
#X obj 203 465 vd~ \$0-del1;
#X obj 289 465 vd~ \$0-del2;
#X obj 379 467 vd~ \$0-del1;
#X obj 465 467 vd~ \$0-del2;
#X obj 553 461 vd~ \$0-del1;
#X obj 639 461 vd~ \$0-del2;
#X floatatom 149 249 5 0 0 0 - - - 0;
#X msg 20 275 clear;
#X obj 109 185 bs2~ 130 2;
#X obj 80 274 noisegate 74 3 100;
#X obj 256 280 noisegate 64 3 100;
#X obj 28 432 line~;
#X obj 203 435 line~;
#X obj 379 437 line~;
#X obj 553 429 line~;
#X obj 626 240 bng 20 250 50 0 empty empty empty 0 -10 0 12 #fcfcfc #000000 #000000;
#X obj 572 45 bng 80 250 50 0 empty empty empty 0 -10 0 12 #00faff #000000 #000000;
#X obj 289 366 t a;
#X msg 481 327 2000;
#X obj 28 403 unpack f f f f, f 70;
#X msg 619 366 10000 11000 12000 13000;
#X obj 626 209 loadbang;
#X obj 80 325 delwrite~ \$0-del1 60000;
#X obj 255 327 delwrite~ \$0-del2 60000;
#X msg 623 267 15000 30000 45000 60000;
#X msg 487 247 37500 42000;
#X msg 497 139 0;
#X obj 497 164 s \$0-on-rcv;
#X obj 693 165 r \$0-on-snd;
#X obj 693 190 sel 1;
#X obj 778 79 s \$0-on-rcv;
#X obj 778 27 r MODE;
#X obj 778 52 == \$1;
#X obj 60 46 bng 20 250 50 0 empty empty clear 22 10 0 12 #ff0400 #000000 #ff0400;
#X obj 675 538 hsl 170 20 0 2 0 1 \$0-master \$0-master empty -2 -10 0 12 #ff0400 #000000 #000000 14700 1;
#X obj 107 588 mode-outputs \$0, f 56;
#X msg 617 320 2000 3000 4000 5000;
#X obj 28 525 *~ 1;
#X obj 204 528 *~ 1;
#X obj 380 530 *~ 1;
#X obj 554 524 *~ 1;
#X connect 1 0 2 0;
#X connect 1 1 3 0;
#X connect 2 0 5 0;
#X connect 3 0 5 0;
#X connect 4 0 1 0;
#X connect 6 0 8 0;
#X connect 7 0 13 0;
#X connect 8 0 28 0;
#X connect 9 0 10 0;
#X connect 10 0 11 0;
#X connect 11 0 12 0;
#X connect 11 0 12 1;
#X connect 12 0 8 1;
#X connect 12 0 13 1;
#X connect 13 0 42 0;
#X connect 14 0 56 0;
#X connect 15 0 56 0;
#X connect 18 0 29 1;
#X connect 19 0 57 0;
#X connect 20 0 57 0;
#X connect 21 0 58 0;
#X connect 22 0 58 0;
#X connect 23 0 59 0;
#X connect 24 0 59 0;
#X connect 25 0 28 1;
#X connect 26 0 41 0;
#X connect 26 0 42 0;
#X connect 28 0 41 0;
#X connect 30 0 14 0;
#X connect 30 0 15 0;
#X connect 31 0 19 0;
#X connect 31 0 20 0;
#X connect 32 0 21 0;
#X connect 32 0 22 0;
#X connect 33 0 23 0;
#X connect 33 0 24 0;
#X connect 34 0 43 0;
#X connect 35 0 44 0;
#X connect 35 0 45 0;
#X connect 36 0 31 0;
#X connect 36 0 33 0;
#X connect 36 0 32 0;
#X connect 36 0 30 0;
#X connect 37 0 36 0;
#X connect 38 0 30 0;
#X connect 38 1 31 0;
#X connect 38 2 32 0;
#X connect 38 3 33 0;
#X connect 39 0 38 0;
#X connect 40 0 34 0;
#X connect 43 0 38 0;
#X connect 44 0 36 0;
#X connect 45 0 46 0;
#X connect 47 0 48 0;
#X connect 48 0 34 0;
#X connect 50 0 51 0;
#X connect 51 0 49 0;
#X connect 52 0 26 0;
#X connect 55 0 38 0;
#X connect 56 0 54 0;
#X connect 57 0 54 1;
#X connect 58 0 54 2;
#X connect 59 0 54 3;
#X coords 0 -1 1 1 110 60 1 10 10;
