#N canvas 0 59 571 598 12;
#X obj 109 63 env~;
#X obj 157 103 > \$1;
#X obj 157 128 change;
#X obj 12 27 tgl 20 0 empty empty empty 0 -10 0 12 #fcfcfc #000000 #000000 0 1;
#X obj 157 321 t b b;
#X obj 189 349 f;
#X msg 157 353 0;
#X obj 189 436 / 15;
#X obj 189 461 clip 0 1;
#X obj 109 381 max;
#X obj 109 407 f;
#X obj 109 30 inlet~;
#X obj 189 487 outlet;
#X obj 252 28 inlet;
#X obj 121 503 bng 20 250 50 0 empty empty empty 0 -10 0 12 #fcfcfc #000000 #000000;
#X floatatom 248 76 5 0 0 0 - - - 0;
#X obj 189 374 - \$1;
#X obj 217 66 f;
#X obj 331 297 * -1;
#X obj 331 322 + 100;
#X floatatom 331 347 5 0 0 0 - - - 0;
#X obj 408 127 loadbang;
#X obj 408 152 f \$1;
#X obj 170 269 del 10;
#X obj 21 168 bonk~;
#X obj 28 237 bng 20 250 50 0 empty empty empty 0 -10 0 12 #fcfcfc #000000 #000000;
#X obj 66 195 b;
#X msg 69 166 thresh 5 40;
#X obj 70 140 loadbang;
#X connect 0 0 1 0;
#X connect 0 0 9 0;
#X connect 1 0 2 0;
#X connect 2 0 3 0;
#X connect 4 0 6 0;
#X connect 4 1 5 0;
#X connect 5 0 16 0;
#X connect 6 0 9 1;
#X connect 7 0 8 0;
#X connect 8 0 12 0;
#X connect 8 0 14 0;
#X connect 9 0 10 0;
#X connect 10 0 9 1;
#X connect 10 0 5 1;
#X connect 11 0 0 0;
#X connect 11 0 24 0;
#X connect 13 0 17 0;
#X connect 15 0 17 0;
#X connect 16 0 7 0;
#X connect 17 0 1 1;
#X connect 17 0 16 1;
#X connect 17 0 18 0;
#X connect 18 0 19 0;
#X connect 19 0 20 0;
#X connect 19 0 7 1;
#X connect 21 0 22 0;
#X connect 22 0 18 0;
#X connect 23 0 4 0;
#X connect 24 1 25 0;
#X connect 24 1 26 0;
#X connect 26 0 4 0;
#X connect 27 0 24 0;
#X connect 28 0 27 0;
#X coords 0 -1 1 1 85 40 1 10 10;
