#N canvas 0 30 1366 672 12;
#X obj 15 46 tgl 20 0 \$0-on-snd \$0-on-rcv micros_actif 0 -10 0 12 #fcfcfc #000000 #000000 0 1;
#X obj 133 39 sel 0 1, f 44;
#X msg 133 64 label micros_inactif;
#X msg 285 64 label micros_actif;
#X obj 133 14 r \$0-on-snd;
#X obj 133 89 s \$0-on-rcv;
#X msg 579 62 clear;
#X obj 778 79 s \$0-on-rcv;
#X obj 778 27 r MODE;
#X obj 778 52 == \$1;
#X obj 570 40 bng 20 250 50 0 empty empty clear 22 10 0 12 #ff0400 #000000 #ff0400;
#X obj 17 131 mode-inputs \$0, f 116;
#X obj 883 559 hsl 170 20 0 2 0 1 \$0-master \$0-master empty -2 -10 0 12 #ff0400 #000000 #000000 8600 1;
#X obj 202 807 mode-outputs \$0, f 47;
#X obj 775 217 hip~ 300;
#X floatatom 280 428 5 0 0 0 - - - 0;
#X obj 177 396 cyclone/downsamp~;
#X obj 909 43 apcheb;
#X obj 176 558 atan~;
#X obj 17 623 atan~;
#X obj 17 456 cyclone/downsamp~ 50;
#X floatatom 125 398 5 0 0 0 - - - 0;
#X floatatom 36 428 5 0 0 0 - - - 0;
#X obj 655 507 atan~;
#X obj 653 314 hip~ 150;
#X floatatom 251 281 5 0 0 0 - - - 24;
#X obj 208 210 hip~ 500;
#X obj 207 331 * 200;
#X msg 207 282 1 \$1;
#X obj 207 307 -;
#X obj 207 357 + 2;
#X obj 207 237 force_attaque 65;
#X obj 51 222 hip~ 500;
#X msg 50 294 1 \$1;
#X obj 50 319 -;
#X obj 50 372 + 2;
#X obj 50 249 force_attaque 65;
#X floatatom 49 397 5 0 0 0 - - - 0;
#X obj 50 344 * 100;
#X obj 654 478 *~;
#X obj 777 465 osc~ 400;
#X obj 654 445 hip~ 150;
#X msg 776 293 1 \$1;
#X obj 776 318 -;
#X obj 776 248 force_attaque 65;
#X obj 777 389 mtof;
#X obj 777 440 line~;
#X obj 777 364 + 50;
#X msg 777 415 \$1 3000;
#X obj 909 515 atan~;
#X obj 907 249 hip~ 150;
#X obj 908 486 *~;
#X obj 1028 490 osc~ 400;
#X obj 908 453 hip~ 150;
#X msg 1027 317 1 \$1;
#X obj 1027 342 -;
#X obj 1026 272 force_attaque 65;
#X obj 1028 413 mtof;
#X obj 1028 464 line~;
#X msg 1028 439 \$1 3000;
#X obj 1026 241 hip~ 2000;
#X obj 1028 388 + 60;
#X obj 1151 208 apmaster \$0-ap;
#X obj 1151 280 apmasterfile \$0-ap ap.txt;
#X obj 1151 231 loadbang;
#X obj 1151 256 bng 20 250 50 0 empty empty empty 0 -10 0 12 #00ff04 #000000 #000000;
#X obj 1322 254 bng 20 250 50 0 empty empty empty 0 -10 0 12 #ff0400 #000000 #000000;
#X obj 1153 114 hsl 200 15 0 1 0 0 empty empty empty -2 -6 0 8 #d8fcd8 #000000 #000000 0 1;
#X obj 1151 31 hradio 15 1 0 4 empty empty empty 0 -8 0 10 #00fc04 #000000 #000000 0;
#X obj 1273 31 hradio 15 1 0 4 empty empty empty 0 -8 0 10 #fc0400 #000000 #000000 0;
#X msg 1151 49 _all_ load \$1;
#X msg 1273 50 _all_ store \$1;
#X msg 1150 154 _all_ load \$1;
#X floatatom 1150 133 5 0 0 0 - - - 0;
#X obj 1151 74 s \$0-ap-pattern-snd;
#X obj 1150 180 s \$0-ap-pattern-snd;
#X obj 16 515 aplattice \$0-ap l1;
#X obj 176 451 aplattice \$0-ap l2;
#X obj 17 487 quantize~ 95;
#X obj 177 427 quantize~ 115;
#X obj 654 339 aplattice \$0-ap l5;
#X obj 907 345 aplattice \$0-ap l6;
#X floatatom 429 426 5 0 0 0 - - - 0;
#X obj 326 394 cyclone/downsamp~;
#X obj 325 556 atan~;
#X floatatom 400 279 5 0 0 0 - - - 24;
#X obj 357 208 hip~ 500;
#X msg 356 280 1 \$1;
#X obj 356 305 -;
#X obj 356 355 + 2;
#X obj 356 235 force_attaque 65;
#X obj 325 588 lop~ 4000;
#X floatatom 584 424 5 0 0 0 - - - 0;
#X obj 481 392 cyclone/downsamp~;
#X obj 480 554 atan~;
#X floatatom 555 277 5 0 0 0 - - - 24;
#X obj 512 206 hip~ 500;
#X msg 511 278 1 \$1;
#X obj 511 303 -;
#X obj 511 353 + 2;
#X obj 511 233 force_attaque 65;
#X obj 479 612 lop~ 4000;
#X obj 325 449 aplattice \$0-ap l3;
#X obj 480 447 aplattice \$0-ap l4;
#X obj 326 425 quantize~ 300;
#X floatatom 818 389 5 0 0 0 - - - 0;
#X floatatom 1076 409 5 0 0 0 - - - 0;
#X obj 776 341 * 15;
#X obj 1027 365 * 15;
#X obj 176 590 lop~ 6000;
#X obj 17 646 lop~ 6000;
#X obj 178 160 noisegate 68 1 50;
#X obj 338 160 noisegate 70 1 100;
#X obj 356 329 * 100;
#X obj 18 166 noisegate 70 1 20;
#X obj 511 327 * 50;
#X obj 484 163 noisegate 70 1 100;
#X obj 479 583 *~;
#X obj 714 697 osc~ 400;
#X msg 713 525 1 \$1;
#X obj 713 550 -;
#X obj 714 621 mtof;
#X obj 714 672 line~;
#X floatatom 760 624 5 0 0 0 - - - 0;
#X obj 713 573 * 15;
#X floatatom 766 601 5 0 0 0 - - - 0;
#X obj 481 423 quantize~ 30;
#X msg 714 647 \$1 50;
#X obj 714 596 + 55;
#X obj 1073 328 apnum \$0-ap foffset6;
#X obj 821 297 apnum \$0-ap foffset6;
#X obj 1068 91 r MPDIN;
#X msg 1068 116 \$2 \$1;
#X obj 1068 141 route 20;
#X obj 1068 166 / 127;
#X obj 241 651 delaudio 40;
#X obj 241 628 hip~ 180;
#X obj 239 674 *~ -0.3;
#X obj 239 697 rev1bis~ 10;
#X obj 349 626 hip~ 180;
#X obj 349 649 delaudio 20;
#X obj 347 695 rev1bis~ 5;
#X obj 347 672 *~ -0.2;
#X obj 91 626 hip~ 180;
#X obj 89 696 rev1bis~ 15;
#X obj 88 722 lop~ 1200;
#X obj 496 644 hip~ 180;
#X obj 494 690 *~ -0.3;
#X obj 494 738 lop~ 1200;
#X obj 598 863 bng 20 250 50 0 empty empty empty 0 -10 0 12 #fcfcfc #000000 #000000;
#X obj 89 672 *~ -0.4;
#X obj 494 714 rev1bis~ 10;
#X obj 496 667 delaudio 70;
#X obj 91 649 delaudio 60;
#X connect 1 0 2 0;
#X connect 1 1 3 0;
#X connect 2 0 5 0;
#X connect 3 0 5 0;
#X connect 4 0 1 0;
#X connect 8 0 9 0;
#X connect 9 0 7 0;
#X connect 10 0 6 0;
#X connect 11 0 114 0;
#X connect 11 1 111 0;
#X connect 11 2 112 0;
#X connect 11 3 116 0;
#X connect 11 4 14 0;
#X connect 11 4 24 0;
#X connect 11 5 50 0;
#X connect 11 5 60 0;
#X connect 14 0 44 0;
#X connect 15 0 79 0;
#X connect 16 0 79 0;
#X connect 18 0 109 0;
#X connect 19 0 110 0;
#X connect 20 0 78 0;
#X connect 21 0 20 1;
#X connect 22 0 78 0;
#X connect 23 0 13 0;
#X connect 23 0 13 2;
#X connect 24 0 80 0;
#X connect 26 0 31 0;
#X connect 27 0 30 0;
#X connect 28 0 29 0;
#X connect 29 0 27 0;
#X connect 30 0 16 1;
#X connect 31 0 25 0;
#X connect 31 0 28 0;
#X connect 32 0 36 0;
#X connect 33 0 34 0;
#X connect 34 0 38 0;
#X connect 35 0 20 1;
#X connect 35 0 37 0;
#X connect 36 0 33 0;
#X connect 38 0 35 0;
#X connect 39 0 23 0;
#X connect 40 0 39 1;
#X connect 41 0 39 0;
#X connect 42 0 43 0;
#X connect 43 0 107 0;
#X connect 44 0 42 0;
#X connect 45 0 48 0;
#X connect 45 0 105 0;
#X connect 46 0 40 0;
#X connect 47 0 45 0;
#X connect 48 0 46 0;
#X connect 49 0 13 1;
#X connect 49 0 13 3;
#X connect 50 0 81 0;
#X connect 51 0 49 0;
#X connect 52 0 51 1;
#X connect 53 0 51 0;
#X connect 54 0 55 0;
#X connect 55 0 108 0;
#X connect 56 0 54 0;
#X connect 57 0 59 0;
#X connect 57 0 106 0;
#X connect 58 0 52 0;
#X connect 59 0 58 0;
#X connect 60 0 56 0;
#X connect 61 0 57 0;
#X connect 64 0 65 0;
#X connect 65 0 63 0;
#X connect 66 0 63 1;
#X connect 67 0 73 0;
#X connect 68 0 70 0;
#X connect 69 0 71 0;
#X connect 70 0 74 0;
#X connect 71 0 74 0;
#X connect 72 0 75 0;
#X connect 73 0 72 0;
#X connect 76 0 19 0;
#X connect 77 0 18 0;
#X connect 78 0 76 0;
#X connect 79 0 77 0;
#X connect 80 0 41 0;
#X connect 81 0 53 0;
#X connect 82 0 104 0;
#X connect 83 0 104 0;
#X connect 84 0 91 0;
#X connect 86 0 90 0;
#X connect 87 0 88 0;
#X connect 88 0 113 0;
#X connect 89 0 83 1;
#X connect 90 0 85 0;
#X connect 90 0 87 0;
#X connect 91 0 13 0;
#X connect 91 0 139 0;
#X connect 92 0 126 0;
#X connect 93 0 126 0;
#X connect 94 0 117 0;
#X connect 96 0 100 0;
#X connect 97 0 98 0;
#X connect 98 0 115 0;
#X connect 99 0 93 1;
#X connect 100 0 95 0;
#X connect 100 0 97 0;
#X connect 100 0 119 0;
#X connect 101 0 13 2;
#X connect 101 0 146 0;
#X connect 102 0 84 0;
#X connect 103 0 94 0;
#X connect 104 0 102 0;
#X connect 107 0 47 0;
#X connect 108 0 61 0;
#X connect 109 0 13 3;
#X connect 109 0 136 0;
#X connect 110 0 13 1;
#X connect 110 0 143 0;
#X connect 111 0 26 0;
#X connect 111 0 16 0;
#X connect 112 0 86 0;
#X connect 112 0 83 0;
#X connect 113 0 89 0;
#X connect 114 0 20 0;
#X connect 114 0 32 0;
#X connect 115 0 99 0;
#X connect 116 0 96 0;
#X connect 116 0 93 0;
#X connect 117 0 101 0;
#X connect 118 0 117 1;
#X connect 119 0 120 0;
#X connect 120 0 124 0;
#X connect 121 0 127 0;
#X connect 121 0 123 0;
#X connect 122 0 118 0;
#X connect 124 0 128 0;
#X connect 125 0 128 1;
#X connect 126 0 103 0;
#X connect 127 0 122 0;
#X connect 128 0 121 0;
#X connect 129 0 61 1;
#X connect 130 0 47 1;
#X connect 131 0 132 0;
#X connect 132 0 133 0;
#X connect 133 0 134 0;
#X connect 134 0 67 0;
#X connect 135 0 137 0;
#X connect 136 0 135 0;
#X connect 137 0 138 0;
#X connect 138 0 13 1;
#X connect 139 0 140 0;
#X connect 140 0 142 0;
#X connect 141 0 13 2;
#X connect 142 0 141 0;
#X connect 143 0 153 0;
#X connect 144 0 145 0;
#X connect 145 0 13 3;
#X connect 146 0 152 0;
#X connect 147 0 151 0;
#X connect 148 0 13 0;
#X connect 150 0 144 0;
#X connect 151 0 148 0;
#X connect 152 0 147 0;
#X connect 153 0 150 0;
#X coords 0 -1 1 1 110 60 1 10 10;
