#N canvas 370 153 561 409 12;
#X obj 321 210 dbtorms;
#X obj 321 174 min 100;
#X obj 321 60 inlet;
#X obj 25 60 inlet~;
#X obj 246 377 outlet~;
#X obj 414 60 inlet;
#X obj 414 126 t b;
#X obj 264 239 -;
#X obj 264 313 line~;
#X obj 264 287 pack 0 100;
#X obj 246 340 *~;
#X obj 264 264 * 0.01;
#X text 225 22 reverb decay speed;
#X text 221 36 (dB left after 1 sec);
#X text 414 32 bang to clear;
#X obj 25 98 rev1-stage \$0 \$0-del1 0 8;
#X obj 25 122 rev1-stage \$0 \$0-del2 1 14.32;
#X obj 25 146 rev1-stage \$0 \$0-del3 2 25.6328;
#X obj 25 170 rev1-stage \$0 \$0-del4 3 45.8827;
#X obj 25 194 rev1-stage \$0 \$0-del5 4 82.1301;
#X obj 25 218 rev1-stage \$0 \$0-del6 5 147.013;
#X obj 25 242 rev1-stage \$0 \$0-del7 6 263.153;
#X obj 25 266 rev1-stage \$0 \$0-del8 7 471.044;
#X obj 25 290 rev1-stage \$0 \$0-del9 8 843.168;
#X obj 25 314 rev1-final \$0 \$0-del10 9 1509.27;
#X obj 321 237 s \$0-decay;
#X obj 414 179 s \$0-clear;
#X msg 264 209 105 \$1;
#X obj 431 240 loadbang;
#X obj 431 265 f \$1;
#X obj 431 290 sel 0;
#X connect 0 0 25 0;
#X connect 1 0 0 0;
#X connect 1 0 27 0;
#X connect 2 0 1 0;
#X connect 3 0 15 0;
#X connect 5 0 6 0;
#X connect 6 0 26 0;
#X connect 7 0 11 0;
#X connect 8 0 10 1;
#X connect 9 0 8 0;
#X connect 10 0 4 0;
#X connect 11 0 9 0;
#X connect 15 0 16 0;
#X connect 15 1 16 1;
#X connect 16 0 17 0;
#X connect 16 1 17 1;
#X connect 17 0 18 0;
#X connect 17 1 18 1;
#X connect 18 0 19 0;
#X connect 18 1 19 1;
#X connect 19 0 20 0;
#X connect 19 1 20 1;
#X connect 20 0 21 0;
#X connect 20 1 21 1;
#X connect 21 0 22 0;
#X connect 21 1 22 1;
#X connect 22 0 23 0;
#X connect 22 1 23 1;
#X connect 23 0 24 0;
#X connect 23 1 24 1;
#X connect 24 1 10 0;
#X connect 27 0 7 0;
#X connect 28 0 29 0;
#X connect 29 0 30 0;
#X connect 30 1 1 0;
