#N canvas 689 80 579 386 12;
#X obj 56 54 inlet~;
#X obj 57 301 *~;
#X obj 236 171 random 4;
#X obj 236 15 inlet change_diff;
#X obj 77 223 == 0;
#X msg 77 248 \$1 10;
#X obj 77 273 line~;
#X obj 57 326 outlet~;
#X obj 151 300 *~;
#X msg 171 247 \$1 10;
#X obj 171 272 line~;
#X obj 151 325 outlet~;
#X obj 237 301 *~;
#X msg 257 248 \$1 10;
#X obj 257 273 line~;
#X obj 237 326 outlet~;
#X obj 331 300 *~;
#X msg 351 247 \$1 10;
#X obj 351 272 line~;
#X obj 331 325 outlet~;
#X obj 171 222 == 1;
#X obj 257 223 == 2;
#X obj 351 222 == 3;
#X obj 236 39 sel 1 0;
#X obj 236 116 spigot 1;
#X msg 258 142 0;
#X obj 289 67 del 100;
#X msg 289 92 1;
#X msg 243 71 stop;
#X connect 0 0 1 0;
#X connect 0 0 8 0;
#X connect 0 0 12 0;
#X connect 0 0 16 0;
#X connect 1 0 7 0;
#X connect 2 0 4 0;
#X connect 2 0 20 0;
#X connect 2 0 21 0;
#X connect 2 0 22 0;
#X connect 3 0 23 0;
#X connect 4 0 5 0;
#X connect 5 0 6 0;
#X connect 6 0 1 1;
#X connect 8 0 11 0;
#X connect 9 0 10 0;
#X connect 10 0 8 1;
#X connect 12 0 15 0;
#X connect 13 0 14 0;
#X connect 14 0 12 1;
#X connect 16 0 19 0;
#X connect 17 0 18 0;
#X connect 18 0 16 1;
#X connect 20 0 9 0;
#X connect 21 0 13 0;
#X connect 22 0 17 0;
#X connect 23 0 24 0;
#X connect 23 0 28 0;
#X connect 23 1 26 0;
#X connect 24 0 25 0;
#X connect 24 0 2 0;
#X connect 25 0 24 1;
#X connect 26 0 27 0;
#X connect 27 0 24 1;
#X connect 28 0 26 0;
