#N canvas 87 30 443 293 12;
#X obj 33 20 inlet~;
#X obj 33 200 outlet~;
#X obj 90 20 inlet~;
#X obj 121 201 outlet~;
#X obj 147 20 inlet~;
#X obj 207 201 outlet~;
#X obj 204 20 inlet~;
#X obj 293 201 outlet~;
#N canvas 166 163 510 517 channel 0;
#X obj 29 17 inlet~;
#X obj 29 427 outlet~;
#X obj 84 427 outlet~;
#X obj 141 427 outlet~;
#X obj 198 427 outlet~;
#X obj 29 400 *~;
#X obj 85 401 *~;
#X obj 140 401 *~;
#X obj 197 399 *~;
#X obj 169 88 + 2;
#X obj 169 115 fmod 4;
#X obj 169 140 - 2;
#X obj 169 165 abs;
#X obj 169 190 * -1;
#X obj 169 215 + 1;
#X obj 169 240 clip 0 1;
#X obj 169 18 inlet;
#X obj 240 88 + 2;
#X obj 240 115 fmod 4;
#X obj 240 140 - 2;
#X obj 240 165 abs;
#X obj 240 190 * -1;
#X obj 240 215 + 1;
#X obj 240 240 clip 0 1;
#X obj 306 89 + 2;
#X obj 306 116 fmod 4;
#X obj 306 141 - 2;
#X obj 306 166 abs;
#X obj 306 191 * -1;
#X obj 306 216 + 1;
#X obj 306 241 clip 0 1;
#X obj 377 89 + 2;
#X obj 377 116 fmod 4;
#X obj 377 141 - 2;
#X obj 377 166 abs;
#X obj 377 191 * -1;
#X obj 377 216 + 1;
#X obj 377 241 clip 0 1;
#X obj 169 63 - 0;
#X obj 240 63 - 1;
#X obj 306 64 - 2;
#X obj 377 64 - 3;
#X msg 169 295 \$1 10;
#X msg 240 295 \$1 10;
#X msg 306 296 \$1 10;
#X msg 377 295 \$1 10;
#X obj 169 320 line~;
#X obj 240 320 line~;
#X obj 306 321 line~;
#X obj 377 321 line~;
#X obj 169 268 sqrt;
#X obj 240 268 sqrt;
#X obj 306 269 sqrt;
#X obj 377 268 sqrt;
#X floatatom 115 121 5 0 0 0 - - - 0;
#X floatatom 204 140 5 0 0 0 - - - 0;
#X connect 0 0 5 0;
#X connect 0 0 8 0;
#X connect 0 0 7 0;
#X connect 0 0 6 0;
#X connect 5 0 1 0;
#X connect 6 0 2 0;
#X connect 7 0 3 0;
#X connect 8 0 4 0;
#X connect 9 0 10 0;
#X connect 9 0 54 0;
#X connect 10 0 11 0;
#X connect 11 0 12 0;
#X connect 12 0 13 0;
#X connect 13 0 14 0;
#X connect 14 0 15 0;
#X connect 15 0 50 0;
#X connect 16 0 38 0;
#X connect 16 0 39 0;
#X connect 16 0 40 0;
#X connect 16 0 41 0;
#X connect 17 0 18 0;
#X connect 17 0 55 0;
#X connect 18 0 19 0;
#X connect 19 0 20 0;
#X connect 20 0 21 0;
#X connect 21 0 22 0;
#X connect 22 0 23 0;
#X connect 23 0 51 0;
#X connect 24 0 25 0;
#X connect 25 0 26 0;
#X connect 26 0 27 0;
#X connect 27 0 28 0;
#X connect 28 0 29 0;
#X connect 29 0 30 0;
#X connect 30 0 52 0;
#X connect 31 0 32 0;
#X connect 32 0 33 0;
#X connect 33 0 34 0;
#X connect 34 0 35 0;
#X connect 35 0 36 0;
#X connect 36 0 37 0;
#X connect 37 0 53 0;
#X connect 38 0 9 0;
#X connect 39 0 17 0;
#X connect 40 0 24 0;
#X connect 41 0 31 0;
#X connect 42 0 46 0;
#X connect 43 0 47 0;
#X connect 44 0 48 0;
#X connect 45 0 49 0;
#X connect 46 0 5 1;
#X connect 47 0 6 1;
#X connect 48 0 7 1;
#X connect 49 0 8 1;
#X connect 50 0 42 0;
#X connect 51 0 43 0;
#X connect 52 0 44 0;
#X connect 53 0 45 0;
#X restore 33 128 pd channel;
#N canvas 715 87 510 517 channel 0;
#X obj 29 17 inlet~;
#X obj 29 427 outlet~;
#X obj 84 427 outlet~;
#X obj 141 427 outlet~;
#X obj 198 427 outlet~;
#X obj 29 400 *~;
#X obj 85 401 *~;
#X obj 140 401 *~;
#X obj 197 399 *~;
#X obj 169 88 + 2;
#X obj 169 115 fmod 4;
#X obj 169 140 - 2;
#X obj 169 165 abs;
#X obj 169 190 * -1;
#X obj 169 215 + 1;
#X obj 169 240 clip 0 1;
#X obj 169 18 inlet;
#X obj 240 88 + 2;
#X obj 240 115 fmod 4;
#X obj 240 140 - 2;
#X obj 240 165 abs;
#X obj 240 190 * -1;
#X obj 240 215 + 1;
#X obj 240 240 clip 0 1;
#X obj 306 89 + 2;
#X obj 306 116 fmod 4;
#X obj 306 141 - 2;
#X obj 306 166 abs;
#X obj 306 191 * -1;
#X obj 306 216 + 1;
#X obj 306 241 clip 0 1;
#X obj 377 89 + 2;
#X obj 377 116 fmod 4;
#X obj 377 141 - 2;
#X obj 377 166 abs;
#X obj 377 191 * -1;
#X obj 377 216 + 1;
#X obj 377 241 clip 0 1;
#X obj 169 63 - 0;
#X obj 240 63 - 1;
#X obj 306 64 - 2;
#X obj 377 64 - 3;
#X msg 169 295 \$1 10;
#X msg 240 295 \$1 10;
#X msg 306 296 \$1 10;
#X msg 377 295 \$1 10;
#X obj 169 320 line~;
#X obj 240 320 line~;
#X obj 306 321 line~;
#X obj 377 321 line~;
#X obj 169 268 sqrt;
#X obj 240 268 sqrt;
#X obj 306 269 sqrt;
#X obj 377 268 sqrt;
#X connect 0 0 5 0;
#X connect 0 0 8 0;
#X connect 0 0 7 0;
#X connect 0 0 6 0;
#X connect 5 0 1 0;
#X connect 6 0 2 0;
#X connect 7 0 3 0;
#X connect 8 0 4 0;
#X connect 9 0 10 0;
#X connect 10 0 11 0;
#X connect 11 0 12 0;
#X connect 12 0 13 0;
#X connect 13 0 14 0;
#X connect 14 0 15 0;
#X connect 15 0 50 0;
#X connect 16 0 38 0;
#X connect 16 0 39 0;
#X connect 16 0 40 0;
#X connect 16 0 41 0;
#X connect 17 0 18 0;
#X connect 18 0 19 0;
#X connect 19 0 20 0;
#X connect 20 0 21 0;
#X connect 21 0 22 0;
#X connect 22 0 23 0;
#X connect 23 0 51 0;
#X connect 24 0 25 0;
#X connect 25 0 26 0;
#X connect 26 0 27 0;
#X connect 27 0 28 0;
#X connect 28 0 29 0;
#X connect 29 0 30 0;
#X connect 30 0 52 0;
#X connect 31 0 32 0;
#X connect 32 0 33 0;
#X connect 33 0 34 0;
#X connect 34 0 35 0;
#X connect 35 0 36 0;
#X connect 36 0 37 0;
#X connect 37 0 53 0;
#X connect 38 0 9 0;
#X connect 39 0 17 0;
#X connect 40 0 24 0;
#X connect 41 0 31 0;
#X connect 42 0 46 0;
#X connect 43 0 47 0;
#X connect 44 0 48 0;
#X connect 45 0 49 0;
#X connect 46 0 5 1;
#X connect 47 0 6 1;
#X connect 48 0 7 1;
#X connect 49 0 8 1;
#X connect 50 0 42 0;
#X connect 51 0 43 0;
#X connect 52 0 44 0;
#X connect 53 0 45 0;
#X restore 117 129 pd channel;
#N canvas 715 87 510 517 channel 0;
#X obj 29 17 inlet~;
#X obj 29 427 outlet~;
#X obj 84 427 outlet~;
#X obj 141 427 outlet~;
#X obj 198 427 outlet~;
#X obj 29 400 *~;
#X obj 85 401 *~;
#X obj 140 401 *~;
#X obj 197 399 *~;
#X obj 169 88 + 2;
#X obj 169 115 fmod 4;
#X obj 169 140 - 2;
#X obj 169 165 abs;
#X obj 169 190 * -1;
#X obj 169 215 + 1;
#X obj 169 240 clip 0 1;
#X obj 169 18 inlet;
#X obj 240 88 + 2;
#X obj 240 115 fmod 4;
#X obj 240 140 - 2;
#X obj 240 165 abs;
#X obj 240 190 * -1;
#X obj 240 215 + 1;
#X obj 240 240 clip 0 1;
#X obj 306 89 + 2;
#X obj 306 116 fmod 4;
#X obj 306 141 - 2;
#X obj 306 166 abs;
#X obj 306 191 * -1;
#X obj 306 216 + 1;
#X obj 306 241 clip 0 1;
#X obj 377 89 + 2;
#X obj 377 116 fmod 4;
#X obj 377 141 - 2;
#X obj 377 166 abs;
#X obj 377 191 * -1;
#X obj 377 216 + 1;
#X obj 377 241 clip 0 1;
#X obj 169 63 - 0;
#X obj 240 63 - 1;
#X obj 306 64 - 2;
#X obj 377 64 - 3;
#X msg 169 295 \$1 10;
#X msg 240 295 \$1 10;
#X msg 306 296 \$1 10;
#X msg 377 295 \$1 10;
#X obj 169 320 line~;
#X obj 240 320 line~;
#X obj 306 321 line~;
#X obj 377 321 line~;
#X obj 169 268 sqrt;
#X obj 240 268 sqrt;
#X obj 306 269 sqrt;
#X obj 377 268 sqrt;
#X connect 0 0 5 0;
#X connect 0 0 8 0;
#X connect 0 0 7 0;
#X connect 0 0 6 0;
#X connect 5 0 1 0;
#X connect 6 0 2 0;
#X connect 7 0 3 0;
#X connect 8 0 4 0;
#X connect 9 0 10 0;
#X connect 10 0 11 0;
#X connect 11 0 12 0;
#X connect 12 0 13 0;
#X connect 13 0 14 0;
#X connect 14 0 15 0;
#X connect 15 0 50 0;
#X connect 16 0 38 0;
#X connect 16 0 39 0;
#X connect 16 0 40 0;
#X connect 16 0 41 0;
#X connect 17 0 18 0;
#X connect 18 0 19 0;
#X connect 19 0 20 0;
#X connect 20 0 21 0;
#X connect 21 0 22 0;
#X connect 22 0 23 0;
#X connect 23 0 51 0;
#X connect 24 0 25 0;
#X connect 25 0 26 0;
#X connect 26 0 27 0;
#X connect 27 0 28 0;
#X connect 28 0 29 0;
#X connect 29 0 30 0;
#X connect 30 0 52 0;
#X connect 31 0 32 0;
#X connect 32 0 33 0;
#X connect 33 0 34 0;
#X connect 34 0 35 0;
#X connect 35 0 36 0;
#X connect 36 0 37 0;
#X connect 37 0 53 0;
#X connect 38 0 9 0;
#X connect 39 0 17 0;
#X connect 40 0 24 0;
#X connect 41 0 31 0;
#X connect 42 0 46 0;
#X connect 43 0 47 0;
#X connect 44 0 48 0;
#X connect 45 0 49 0;
#X connect 46 0 5 1;
#X connect 47 0 6 1;
#X connect 48 0 7 1;
#X connect 49 0 8 1;
#X connect 50 0 42 0;
#X connect 51 0 43 0;
#X connect 52 0 44 0;
#X connect 53 0 45 0;
#X restore 202 130 pd channel;
#N canvas 715 87 510 517 channel 0;
#X obj 29 17 inlet~;
#X obj 29 427 outlet~;
#X obj 84 427 outlet~;
#X obj 141 427 outlet~;
#X obj 198 427 outlet~;
#X obj 29 400 *~;
#X obj 85 401 *~;
#X obj 140 401 *~;
#X obj 197 399 *~;
#X obj 169 88 + 2;
#X obj 169 115 fmod 4;
#X obj 169 140 - 2;
#X obj 169 165 abs;
#X obj 169 190 * -1;
#X obj 169 215 + 1;
#X obj 169 240 clip 0 1;
#X obj 169 18 inlet;
#X obj 240 88 + 2;
#X obj 240 115 fmod 4;
#X obj 240 140 - 2;
#X obj 240 165 abs;
#X obj 240 190 * -1;
#X obj 240 215 + 1;
#X obj 240 240 clip 0 1;
#X obj 306 89 + 2;
#X obj 306 116 fmod 4;
#X obj 306 141 - 2;
#X obj 306 166 abs;
#X obj 306 191 * -1;
#X obj 306 216 + 1;
#X obj 306 241 clip 0 1;
#X obj 377 89 + 2;
#X obj 377 116 fmod 4;
#X obj 377 141 - 2;
#X obj 377 166 abs;
#X obj 377 191 * -1;
#X obj 377 216 + 1;
#X obj 377 241 clip 0 1;
#X obj 169 63 - 0;
#X obj 240 63 - 1;
#X obj 306 64 - 2;
#X obj 377 64 - 3;
#X msg 169 295 \$1 10;
#X msg 240 295 \$1 10;
#X msg 306 296 \$1 10;
#X msg 377 295 \$1 10;
#X obj 169 320 line~;
#X obj 240 320 line~;
#X obj 306 321 line~;
#X obj 377 321 line~;
#X obj 169 268 sqrt;
#X obj 240 268 sqrt;
#X obj 306 269 sqrt;
#X obj 377 268 sqrt;
#X connect 0 0 5 0;
#X connect 0 0 8 0;
#X connect 0 0 7 0;
#X connect 0 0 6 0;
#X connect 5 0 1 0;
#X connect 6 0 2 0;
#X connect 7 0 3 0;
#X connect 8 0 4 0;
#X connect 9 0 10 0;
#X connect 10 0 11 0;
#X connect 11 0 12 0;
#X connect 12 0 13 0;
#X connect 13 0 14 0;
#X connect 14 0 15 0;
#X connect 15 0 50 0;
#X connect 16 0 38 0;
#X connect 16 0 39 0;
#X connect 16 0 40 0;
#X connect 16 0 41 0;
#X connect 17 0 18 0;
#X connect 18 0 19 0;
#X connect 19 0 20 0;
#X connect 20 0 21 0;
#X connect 21 0 22 0;
#X connect 22 0 23 0;
#X connect 23 0 51 0;
#X connect 24 0 25 0;
#X connect 25 0 26 0;
#X connect 26 0 27 0;
#X connect 27 0 28 0;
#X connect 28 0 29 0;
#X connect 29 0 30 0;
#X connect 30 0 52 0;
#X connect 31 0 32 0;
#X connect 32 0 33 0;
#X connect 33 0 34 0;
#X connect 34 0 35 0;
#X connect 35 0 36 0;
#X connect 36 0 37 0;
#X connect 37 0 53 0;
#X connect 38 0 9 0;
#X connect 39 0 17 0;
#X connect 40 0 24 0;
#X connect 41 0 31 0;
#X connect 42 0 46 0;
#X connect 43 0 47 0;
#X connect 44 0 48 0;
#X connect 45 0 49 0;
#X connect 46 0 5 1;
#X connect 47 0 6 1;
#X connect 48 0 7 1;
#X connect 49 0 8 1;
#X connect 50 0 42 0;
#X connect 51 0 43 0;
#X connect 52 0 44 0;
#X connect 53 0 45 0;
#X restore 284 132 pd channel;
#X obj 184 102 + 1;
#X obj 269 102 + 2;
#X obj 344 102 + 3;
#X obj 306 22 inlet;
#X obj 306 47 f;
#X connect 0 0 8 0;
#X connect 2 0 9 0;
#X connect 4 0 10 0;
#X connect 6 0 11 0;
#X connect 8 0 1 0;
#X connect 8 1 3 0;
#X connect 8 2 5 0;
#X connect 8 3 7 0;
#X connect 9 0 1 0;
#X connect 9 1 3 0;
#X connect 9 2 5 0;
#X connect 9 3 7 0;
#X connect 10 0 1 0;
#X connect 10 1 3 0;
#X connect 10 2 5 0;
#X connect 10 3 7 0;
#X connect 11 0 1 0;
#X connect 11 1 3 0;
#X connect 11 2 5 0;
#X connect 11 3 7 0;
#X connect 12 0 9 1;
#X connect 13 0 10 1;
#X connect 14 0 11 1;
#X connect 15 0 16 0;
#X connect 16 0 12 0;
#X connect 16 0 14 0;
#X connect 16 0 13 0;
#X connect 16 0 8 1;
