#N canvas 144 155 594 339 12;
#X obj 35 16 inlet~;
#X obj 50 249 *~;
#X obj 304 11 inlet;
#X obj 51 219 vd~ \$0-del;
#X msg 304 59 \$1 100;
#X obj 304 84 line~;
#X obj 304 109 *~ -1;
#X obj 304 134 +~ 1;
#X obj 152 156 sqrt~;
#X obj 301 249 *~;
#X obj 302 219 vd~ \$0-del;
#X obj 404 163 sqrt~;
#X obj 304 35 clip 0 1;
#X obj 50 274 outlet~;
#X obj 301 274 outlet~;
#X obj 355 6 hsl 170 20 0 1 0 0 empty empty empty -2 -10 0 12 #fcfcfc #000000 #000000 0 1;
#X obj 35 45 delwrite~ \$0-del \$1;
#X obj 51 117 *~ \$1;
#X obj 51 142 -~ \$1;
#X obj 303 167 *~ \$1;
#X obj 303 191 -~ \$1;
#X connect 0 0 16 0;
#X connect 1 0 13 0;
#X connect 2 0 12 0;
#X connect 3 0 1 0;
#X connect 4 0 5 0;
#X connect 5 0 6 0;
#X connect 5 0 8 0;
#X connect 5 0 17 0;
#X connect 6 0 7 0;
#X connect 7 0 11 0;
#X connect 7 0 19 0;
#X connect 8 0 1 1;
#X connect 9 0 14 0;
#X connect 10 0 9 0;
#X connect 11 0 9 1;
#X connect 12 0 4 0;
#X connect 15 0 12 0;
#X connect 17 0 18 0;
#X connect 18 0 3 0;
#X connect 19 0 20 0;
#X connect 20 0 10 0;
