#N canvas 590 78 641 383 12;
#X obj 33 20 inlet~;
#X obj 34 349 outlet~;
#X obj 33 316 *~;
#X obj 90 20 inlet~;
#X obj 91 349 outlet~;
#X obj 90 316 *~;
#X obj 147 20 inlet~;
#X obj 148 349 outlet~;
#X obj 147 316 *~;
#X obj 204 20 inlet~;
#X obj 205 349 outlet~;
#X obj 204 316 *~;
#X obj 282 15 inlet;
#X msg 443 83 1;
#X obj 443 108 pack f 2000;
#X msg 536 82 0;
#X obj 536 107 pack f 2;
#X obj 410 19 loadbang;
#X obj 282 271 *~;
#X obj 282 241 vline~, f 15;
#X floatatom 421 170 5 0 0 0 - - - 24;
#X msg 282 210 0 2 \, 1 \$1 2;
#X msg 410 44 0;
#X obj 282 112 pow 2;
#X floatatom 234 122 5 0 0 0 - - - 0;
#X obj 282 158 * 1500;
#X obj 282 184 max 100;
#X connect 0 0 2 0;
#X connect 2 0 1 0;
#X connect 3 0 5 0;
#X connect 5 0 4 0;
#X connect 6 0 8 0;
#X connect 8 0 7 0;
#X connect 9 0 11 0;
#X connect 11 0 10 0;
#X connect 12 0 23 0;
#X connect 13 0 14 0;
#X connect 15 0 16 0;
#X connect 17 0 22 0;
#X connect 18 0 2 1;
#X connect 18 0 5 1;
#X connect 18 0 8 1;
#X connect 18 0 11 1;
#X connect 19 0 18 0;
#X connect 19 0 18 1;
#X connect 21 0 19 0;
#X connect 22 0 25 0;
#X connect 23 0 25 0;
#X connect 25 0 26 0;
#X connect 26 0 21 0;
#X connect 26 0 20 0;
